<?xml version="1.0" standalone="no"?>
<!DOCTYPE svg PUBLIC "-//W3C//DTD SVG 20010904//EN"
 "http://www.w3.org/TR/2001/REC-SVG-20010904/DTD/svg10.dtd">
<svg version="1.0" xmlns="http://www.w3.org/2000/svg"
 width="3600.000000pt" height="2400.000000pt" viewBox="0 0 3600.000000 2400.000000"
 preserveAspectRatio="xMidYMid meet">

<g transform="translate(0.000000,2400.000000) scale(0.100000,-0.100000)"
fill="#000000" stroke="none">
<path d="M0 12000 l0 -12000 18000 0 18000 0 0 12000 0 12000 -18000 0 -18000
0 0 -12000z m18180 7961 c634 -83 1190 -304 1650 -655 283 -216 546 -500 757
-816 139 -209 313 -551 292 -576 -6 -7 -45 -27 -87 -44 -42 -17 -111 -45 -152
-61 -41 -17 -90 -38 -108 -47 -33 -16 -34 -15 -52 8 -10 13 -28 49 -40 79 -61
148 -204 390 -329 551 -186 243 -355 408 -606 592 -267 196 -627 368 -945 452
-385 101 -778 121 -1170 62 -267 -41 -603 -136 -636 -180 -12 -18 -8 -46 29
-171 40 -136 170 -420 226 -494 l18 -23 94 35 c119 44 271 81 422 103 92 13
160 16 310 11 268 -7 476 -41 637 -104 36 -14 94 -36 130 -50 387 -148 779
-482 1013 -861 83 -134 227 -436 227 -476 0 -14 -61 -38 -130 -51 -19 -3 -46
-10 -60 -15 -45 -15 -203 -48 -305 -64 -251 -40 -587 -40 -805 0 -258 46 -311
59 -473 111 -173 55 -497 217 -658 329 -138 95 -289 221 -289 239 0 30 298
146 411 160 53 6 55 5 129 -46 223 -155 545 -288 850 -352 151 -32 598 -46
663 -21 29 11 19 32 -57 127 -130 162 -262 277 -449 391 -204 126 -396 193
-658 232 -133 19 -423 13 -541 -12 -191 -40 -438 -144 -596 -251 -340 -230
-549 -495 -687 -873 -104 -286 -114 -671 -26 -1000 11 -41 27 -93 36 -115 9
-22 19 -49 22 -60 3 -11 35 -76 70 -145 132 -260 342 -492 596 -656 85 -55
261 -141 332 -161 150 -43 220 -60 363 -84 85 -14 503 -6 557 11 22 7 72 21
110 32 173 49 271 89 390 159 166 98 306 213 430 353 100 112 137 166 125 181
-15 18 -297 28 -455 16 -185 -13 -398 -62 -601 -136 -165 -61 -303 -133 -466
-242 -53 -36 -101 -62 -107 -59 -5 4 -61 19 -123 35 -128 33 -318 117 -318
141 1 46 431 349 620 438 178 83 410 167 529 192 25 5 71 16 101 24 141 37
290 50 570 50 325 0 410 -12 777 -105 62 -16 115 -29 118 -29 20 0 -18 -106
-103 -289 -41 -90 -130 -238 -205 -344 -191 -269 -464 -499 -783 -660 -217
-109 -352 -153 -629 -204 -134 -24 -523 -23 -648 2 -136 27 -247 55 -350 87
-53 16 -104 28 -111 25 -21 -8 -91 -130 -147 -255 -59 -133 -72 -169 -111
-300 -26 -88 -28 -106 -17 -117 32 -31 426 -146 584 -170 55 -8 132 -20 170
-26 117 -17 449 -23 545 -10 47 7 121 17 165 21 100 11 296 52 385 80 14 4 59
18 100 30 129 38 183 57 265 95 244 112 386 195 570 331 371 276 644 603 863
1034 46 91 88 169 93 174 11 12 37 3 204 -66 184 -77 191 -80 187 -103 -2 -11
-21 -57 -43 -103 -21 -46 -39 -85 -39 -87 0 -3 -28 -55 -62 -117 -277 -505
-685 -940 -1157 -1234 -100 -62 -360 -195 -476 -242 -279 -116 -482 -175 -715
-211 -360 -54 -363 -54 -636 -48 -314 6 -414 19 -744 99 -159 38 -274 73 -390
118 -30 12 -66 25 -80 29 -32 11 -304 145 -395 196 -70 39 -214 133 -290 190
-67 50 -266 216 -332 279 -72 67 -261 277 -344 381 -371 469 -611 1069 -675
1688 -20 197 -23 566 -5 717 15 135 62 377 97 507 96 355 300 776 518 1068
148 198 355 423 536 581 88 77 275 213 400 292 130 82 424 229 545 273 248 91
380 130 510 154 50 9 119 22 155 30 224 46 667 59 920 26z m2580 -7396 l0
-195 46 35 c169 129 425 54 521 -153 54 -115 52 -275 -4 -392 -37 -78 -136
-172 -207 -199 -110 -41 -228 -22 -310 51 l-46 40 0 -51 0 -51 -110 0 -110 0
0 555 0 555 110 0 110 0 0 -195z m-5431 140 c83 -20 165 -64 235 -127 l56 -50
-73 -83 -72 -83 -48 45 c-71 66 -125 87 -227 88 -67 0 -95 -5 -133 -22 -122
-57 -178 -138 -185 -269 -8 -143 44 -245 156 -312 43 -25 56 -27 147 -27 114
0 160 17 238 85 l44 39 74 -75 74 -76 -58 -53 c-139 -128 -326 -175 -516 -130
-184 44 -338 193 -386 376 -20 74 -19 231 1 300 55 186 196 322 385 373 71 19
208 19 288 1z m3810 0 c83 -20 165 -64 235 -127 l56 -50 -73 -83 -72 -83 -48
45 c-71 66 -125 87 -227 88 -67 0 -95 -5 -133 -22 -122 -57 -178 -138 -185
-269 -8 -143 44 -245 156 -312 43 -25 56 -27 147 -27 114 0 160 17 238 85 l44
39 74 -75 74 -76 -58 -53 c-139 -128 -326 -175 -516 -130 -184 44 -338 193
-386 376 -20 74 -19 231 1 300 55 186 196 322 385 373 71 19 208 19 288 1z
m-2834 -251 c120 -31 216 -110 268 -222 25 -54 32 -83 35 -153 9 -187 -76
-329 -243 -405 -84 -39 -215 -45 -313 -15 -252 76 -370 378 -236 607 31 53
118 134 171 159 94 46 213 57 318 29z m975 -88 l0 -103 -55 -6 c-77 -8 -118
-36 -152 -105 -28 -56 -28 -59 -31 -279 l-4 -223 -109 0 -109 0 0 405 0 405
110 0 110 0 0 -56 0 -56 46 41 c46 40 129 79 172 80 21 1 22 -2 22 -103z m780
73 c157 -73 253 -269 222 -455 -48 -292 -360 -445 -556 -272 l-46 40 0 -196 0
-196 -110 0 -110 0 0 550 0 550 110 0 110 0 0 -45 0 -45 48 34 c69 50 125 67
207 63 49 -2 86 -10 125 -28z m2042 11 c74 -23 138 -73 171 -134 21 -39 22
-53 25 -353 l3 -313 -105 0 -106 0 0 47 0 47 -32 -31 c-101 -98 -283 -97 -394
0 -81 72 -110 167 -80 269 20 69 69 116 152 148 48 18 87 23 202 28 l143 5 -7
31 c-15 68 -55 96 -141 96 -48 0 -145 -30 -195 -60 l-31 -19 -49 69 c-27 39
-46 74 -43 80 15 24 174 91 245 103 70 12 181 6 242 -13z m-2907 -1584 c37
-16 42 -26 23 -55 -9 -15 -15 -16 -40 -7 -38 14 -62 -1 -66 -43 -3 -31 -3 -31
42 -31 44 0 46 -1 46 -30 0 -29 -2 -30 -45 -30 l-45 0 0 -150 0 -150 -40 0
-40 0 0 150 c0 143 -1 150 -20 150 -16 0 -20 7 -20 30 0 23 5 30 19 30 14 0
20 10 24 41 6 46 29 76 72 95 39 17 48 17 90 0z m3619 -2 c23 -23 20 -51 -8
-69 -45 -30 -91 20 -59 64 17 25 46 27 67 5z m920 0 c23 -23 20 -51 -8 -69
-45 -30 -91 20 -59 64 17 25 46 27 67 5z m-6053 -25 c21 -7 54 -25 74 -42 l36
-30 -27 -28 c-15 -16 -30 -25 -33 -20 -3 5 -22 18 -41 30 -76 46 -198 13 -234
-63 -35 -73 -14 -164 49 -212 53 -40 135 -41 190 -2 l37 26 23 -26 c21 -25 22
-29 8 -44 -58 -65 -195 -80 -284 -32 -86 47 -119 106 -120 212 -2 167 156 280
322 231z m3164 -17 c87 -45 130 -116 129 -218 0 -62 -4 -78 -30 -120 -43 -70
-108 -107 -194 -112 -84 -5 -131 10 -182 56 -57 52 -80 103 -80 179 0 106 60
192 158 229 52 19 148 12 199 -14z m-5169 -91 l62 -104 31 49 c109 177 97 164
141 164 22 0 40 -2 40 -4 0 -2 -38 -66 -85 -142 l-85 -138 0 -93 0 -93 -40 0
-40 0 0 92 0 91 -77 126 c-42 69 -83 134 -92 144 -14 17 -13 18 34 15 l49 -3
62 -104z m4434 54 l0 -55 45 0 c43 0 45 -1 45 -30 0 -29 -2 -30 -45 -30 l-46
0 3 -111 c3 -127 12 -143 67 -123 26 10 30 9 42 -13 12 -22 11 -26 -6 -36 -60
-36 -125 -23 -162 32 -20 30 -23 46 -23 142 0 102 -1 109 -20 109 -16 0 -20 7
-20 30 0 23 4 30 20 30 18 0 20 7 20 55 l0 55 40 0 40 0 0 -55z m2179 30 c53
-31 74 -67 78 -132 8 -119 -56 -173 -204 -173 l-83 0 0 -70 0 -70 -40 0 -40 0
0 236 0 236 128 -4 c104 -3 134 -7 161 -23z m1661 -30 l0 -55 45 0 c43 0 45
-1 45 -30 0 -29 -2 -30 -45 -30 l-46 0 3 -111 c3 -127 12 -143 67 -123 26 10
30 9 42 -13 12 -22 11 -26 -6 -36 -60 -36 -125 -23 -162 32 -20 30 -23 46 -23
142 0 102 -1 109 -20 109 -16 0 -20 7 -20 30 0 23 4 30 20 30 18 0 20 7 20 55
l0 55 40 0 40 0 0 -55z m-7685 -75 c153 -74 125 -301 -42 -338 -167 -38 -294
140 -200 279 50 74 157 100 242 59z m265 -109 c0 -129 0 -130 27 -151 36 -28
89 -21 121 15 20 24 22 36 22 146 l0 119 40 0 40 0 0 -180 0 -180 -40 0 c-36
0 -40 2 -40 26 l0 26 -31 -26 c-40 -34 -106 -39 -159 -11 -48 25 -60 68 -60
214 l0 131 40 0 40 0 0 -129z m450 93 l0 -37 20 25 c18 23 76 56 84 47 2 -2 6
-18 9 -35 5 -28 3 -31 -36 -45 -61 -21 -77 -58 -77 -181 l0 -98 -40 0 -40 0 0
180 0 180 40 0 c39 0 40 -1 40 -36z m1155 16 c153 -74 125 -301 -42 -338 -167
-38 -294 140 -200 279 50 74 157 100 242 59z m265 -12 c0 -27 2 -29 13 -16 25
32 62 48 109 48 38 0 54 -6 80 -29 l32 -29 35 27 c29 22 45 26 97 26 109 0
134 -42 134 -230 l0 -125 -40 0 -40 0 0 125 c0 112 -2 127 -20 145 -29 29 -94
27 -125 -5 -24 -23 -25 -30 -25 -145 l0 -120 -40 0 -40 0 0 118 c0 143 -9 166
-65 170 -46 4 -79 -11 -94 -45 -6 -13 -11 -73 -11 -133 l0 -110 -40 0 -40 0 0
180 0 180 40 0 c38 0 40 -1 40 -32z m1135 12 c153 -74 125 -301 -42 -338 -167
-38 -294 140 -200 279 50 74 157 100 242 59z m275 -16 l0 -37 20 25 c18 23 76
56 84 47 2 -2 6 -18 9 -35 5 -28 3 -31 -36 -45 -61 -21 -77 -58 -77 -181 l0
-98 -40 0 -40 0 0 180 0 180 40 0 c39 0 40 -1 40 -36z m1340 -93 c0 -129 0
-130 27 -151 36 -28 89 -21 121 15 20 24 22 36 22 146 l0 119 40 0 40 0 0
-180 0 -180 -40 0 c-36 0 -40 2 -40 26 l0 26 -31 -26 c-40 -34 -106 -39 -159
-11 -48 25 -60 68 -60 214 l0 131 40 0 40 0 0 -129z m450 93 l0 -37 20 25 c18
23 76 56 84 47 2 -2 6 -18 9 -35 5 -28 3 -31 -36 -45 -61 -21 -77 -58 -77
-181 l0 -98 -40 0 -40 0 0 180 0 180 40 0 c39 0 40 -1 40 -36z m940 0 l0 -37
20 25 c18 23 76 56 84 47 2 -2 6 -18 9 -35 5 -28 3 -31 -36 -45 -61 -21 -77
-58 -77 -181 l0 -98 -40 0 -40 0 0 180 0 180 40 0 c39 0 40 -1 40 -36z m280
-144 l0 -180 -40 0 -40 0 0 180 0 180 40 0 40 0 0 -180z m365 160 c153 -74
125 -301 -42 -338 -167 -38 -294 140 -200 279 50 74 157 100 242 59z m275 -16
l0 -37 20 25 c18 23 76 56 84 47 2 -2 6 -18 9 -35 5 -28 3 -31 -36 -45 -61
-21 -77 -58 -77 -181 l0 -98 -40 0 -40 0 0 180 0 180 40 0 c39 0 40 -1 40 -36z
m280 -144 l0 -180 -40 0 -40 0 0 180 0 180 40 0 40 0 0 -180z m495 58 c26 -68
51 -126 55 -131 3 -4 29 50 57 120 l51 128 42 3 c32 3 41 0 37 -10 -3 -7 -44
-107 -91 -223 -95 -232 -118 -265 -182 -265 -19 0 -48 7 -65 15 -29 15 -29 16
-14 45 17 34 18 34 47 19 27 -15 66 3 73 33 4 15 -18 83 -65 198 -38 95 -70
178 -70 182 0 4 17 8 38 8 l38 0 49 -122z"/>
<path d="M16249 19078 c-258 -169 -438 -324 -618 -533 -72 -83 -213 -272 -270
-362 -69 -108 -220 -413 -247 -498 -7 -22 -22 -65 -34 -95 -11 -30 -25 -71
-30 -90 -5 -19 -19 -69 -30 -110 -94 -350 -116 -689 -70 -1105 20 -176 93
-472 160 -645 12 -30 26 -68 33 -85 6 -16 48 -104 93 -195 87 -174 217 -379
329 -518 91 -113 267 -294 345 -357 202 -161 396 -298 414 -292 5 2 24 46 42
98 61 185 130 341 212 487 23 41 42 82 42 91 0 10 -21 31 -47 48 -134 87 -349
294 -464 448 -213 281 -349 607 -411 980 -18 107 -18 524 0 625 24 139 70 323
93 375 4 11 25 63 45 115 70 180 204 401 351 576 95 113 308 309 396 363 20
12 37 28 37 34 0 7 -40 93 -89 192 -49 99 -97 200 -106 225 -10 25 -23 61 -31
80 -7 19 -23 68 -36 109 -13 41 -28 76 -34 78 -6 2 -40 -15 -75 -39z"/>
<path d="M20875 12264 c-47 -24 -66 -45 -91 -99 -55 -117 -15 -264 86 -315
154 -79 312 92 260 280 -32 116 -161 183 -255 134z"/>
<path d="M16122 12269 c-47 -14 -109 -79 -122 -131 -20 -71 -9 -168 23 -217
47 -71 114 -100 205 -86 39 6 55 15 94 55 37 39 48 59 58 104 38 182 -94 322
-258 275z"/>
<path d="M17795 12264 c-47 -24 -66 -45 -91 -99 -55 -117 -15 -264 86 -315
154 -79 312 92 260 280 -32 116 -161 183 -255 134z"/>
<path d="M19870 11990 c-41 -10 -70 -42 -70 -79 0 -82 124 -117 215 -61 39 24
52 46 60 104 l7 46 -88 -1 c-49 -1 -105 -5 -124 -9z"/>
<path d="M18664 10761 c-59 -27 -87 -72 -92 -146 -3 -50 0 -66 20 -95 51 -76
136 -101 215 -63 39 18 78 71 88 120 15 74 -43 173 -113 193 -51 14 -71 12
-118 -9z"/>
<path d="M20080 10675 l0 -95 70 0 c80 0 113 12 129 47 40 88 -16 143 -146
143 l-53 0 0 -95z"/>
<path d="M14099 10631 c-24 -25 -29 -37 -29 -80 0 -41 5 -56 28 -81 70 -80
192 -28 192 81 0 67 -43 108 -113 109 -40 0 -53 -5 -78 -29z"/>
<path d="M15969 10631 c-24 -25 -29 -37 -29 -80 0 -41 5 -56 28 -81 70 -80
192 -28 192 81 0 67 -43 108 -113 109 -40 0 -53 -5 -78 -29z"/>
<path d="M17369 10631 c-24 -25 -29 -37 -29 -80 0 -41 5 -56 28 -81 70 -80
192 -28 192 81 0 67 -43 108 -113 109 -40 0 -53 -5 -78 -29z"/>
<path d="M21019 10631 c-24 -25 -29 -37 -29 -80 0 -41 5 -56 28 -81 70 -80
192 -28 192 81 0 67 -43 108 -113 109 -40 0 -53 -5 -78 -29z"/>
</g>
</svg>
