<svg width="141" height="117" viewBox="0 0 141 117" fill="none" xmlns="http://www.w3.org/2000/svg">
<path opacity="0.1" d="M140.354 80.6681C136.502 61.7665 113.94 46.6597 109.54 26.9628C101.542 1.90303 75.1796 -2.05897 58.049 8.82447C30.9056 26.0694 59.862 30.3489 6.64253 71.1494C-6.49856 81.2238 -2.31122 125.695 39.0299 115.489C61.2778 109.997 68.0411 109.226 78.0484 108.321C103.272 106.042 146.818 112.397 140.354 80.6681Z" fill="#B3B3B3"/>
<path d="M110.222 85.4055L71.2359 105.446L32.3091 85.4055V55.1422H110.222V85.4055Z" fill="white"/>
<path d="M71.2358 105.754C71.1842 105.754 71.1334 105.741 71.088 105.718L32.1624 85.6769C32.1118 85.6509 32.0694 85.612 32.0398 85.5644C32.0101 85.5167 31.9944 85.4621 31.9941 85.4064V55.1421C31.9941 55.0606 32.0274 54.9824 32.0866 54.9247C32.1459 54.8671 32.2262 54.8347 32.3099 54.8347H110.221C110.305 54.8347 110.386 54.8671 110.445 54.9247C110.504 54.9824 110.537 55.0606 110.537 55.1421V85.4054C110.537 85.4611 110.521 85.5157 110.492 85.5634C110.462 85.611 110.42 85.6499 110.369 85.6759L71.3833 105.717C71.3379 105.741 71.2873 105.753 71.2358 105.754ZM32.6247 85.2208L71.2358 105.099L109.906 85.2203V55.4495H32.6247V85.2208Z" fill="#262626"/>
<path d="M110.221 48.648L71.2356 28.6071L88.7543 20.3883L127.74 40.4294L110.221 48.648Z" fill="white"/>
<path d="M110.221 48.9555C110.17 48.9555 110.119 48.9433 110.074 48.92L71.0881 28.8789C71.0365 28.8523 70.9934 28.8123 70.9637 28.7633C70.9341 28.7143 70.9189 28.6583 70.92 28.6014C70.921 28.5445 70.9383 28.4891 70.9698 28.4412C71.0013 28.3933 71.0459 28.3548 71.0985 28.3301L88.6171 20.1112C88.6617 20.0902 88.7107 20.0797 88.7601 20.0806C88.8096 20.0815 88.8582 20.0938 88.9019 20.1164L127.888 40.1575C127.939 40.1841 127.982 40.2241 128.012 40.2731C128.042 40.322 128.057 40.3781 128.056 40.4349C128.055 40.4918 128.037 40.5472 128.006 40.5951C127.974 40.643 127.93 40.6814 127.877 40.7061L110.359 48.925C110.316 48.9451 110.269 48.9555 110.221 48.9555ZM71.9362 28.6192L110.228 48.3033L127.039 40.4165L88.7478 20.7329L71.9362 28.6192Z" fill="#262626"/>
<path d="M32.3087 48.648L71.2944 28.6071L53.7757 20.3883L14.79 40.4294L32.3087 48.648Z" fill="white"/>
<path d="M32.3088 48.9555C32.2613 48.9555 32.2144 48.945 32.1716 48.925L14.6539 40.7061C14.6013 40.6814 14.5568 40.643 14.5252 40.5951C14.4937 40.5472 14.4765 40.4918 14.4754 40.4349C14.4743 40.3781 14.4895 40.322 14.5192 40.2731C14.5489 40.2241 14.5919 40.1841 14.6436 40.1575L53.6293 20.1164C53.673 20.0938 53.7215 20.0815 53.771 20.0806C53.8205 20.0797 53.8695 20.0902 53.914 20.1112L71.4327 28.3301C71.4853 28.3548 71.5298 28.3933 71.5613 28.4412C71.5928 28.4891 71.6101 28.5445 71.6112 28.6014C71.6122 28.6583 71.5971 28.7143 71.5674 28.7633C71.5377 28.8123 71.4947 28.8523 71.443 28.8789L32.4573 48.92C32.4115 48.9435 32.3605 48.9557 32.3088 48.9555ZM15.4907 40.4169L32.3022 48.3038L70.5939 28.6197L53.7824 20.7329L15.4907 40.4169Z" fill="#262626"/>
<path d="M32.3093 48.6481L71.295 68.6892L51.2498 79.3668L12.2642 59.3259L32.3093 48.6481Z" fill="white"/>
<path d="M51.2496 79.6742C51.1981 79.6743 51.1475 79.662 51.102 79.6386L12.1163 59.5975C12.066 59.5715 12.0238 59.5327 11.9943 59.4853C11.9647 59.4379 11.9489 59.3836 11.9485 59.3281C11.9481 59.2727 11.9631 59.2182 11.9919 59.1703C12.0208 59.1225 12.0623 59.0832 12.1123 59.0565L32.1574 48.3786C32.2032 48.3542 32.2545 48.3412 32.3067 48.3408C32.3589 48.3405 32.4104 48.3528 32.4565 48.3766L71.4422 68.4178C71.4926 68.4437 71.5347 68.4825 71.5643 68.5299C71.5938 68.5773 71.6097 68.6316 71.6101 68.6871C71.6105 68.7425 71.5955 68.7971 71.5666 68.8449C71.5378 68.8927 71.4962 68.9321 71.4463 68.9588L51.4011 79.6366C51.3547 79.6613 51.3025 79.6743 51.2496 79.6742ZM12.9309 59.3211L51.2468 79.0179L70.628 68.6939L32.3118 48.9971L12.9309 59.3211Z" fill="#262626"/>
<path d="M110.221 48.6481L71.2356 68.6892L91.2807 79.3668L130.266 59.3259L110.221 48.6481Z" fill="white"/>
<path d="M91.2812 79.6742C91.2282 79.6742 91.1761 79.6613 91.1296 79.6366L71.0845 68.9588C71.0345 68.9321 70.9929 68.8927 70.9641 68.8449C70.9353 68.7971 70.9202 68.7425 70.9207 68.6871C70.9211 68.6316 70.9369 68.5773 70.9664 68.5299C70.996 68.4825 71.0382 68.4437 71.0885 68.4178L110.074 48.3766C110.12 48.3528 110.172 48.3405 110.224 48.3408C110.276 48.3412 110.328 48.3542 110.373 48.3786L130.418 59.0565C130.468 59.0832 130.51 59.1225 130.539 59.1703C130.568 59.2182 130.583 59.2727 130.582 59.3281C130.582 59.3836 130.566 59.4379 130.536 59.4853C130.507 59.5327 130.465 59.5715 130.414 59.5975L91.4287 79.6386C91.3833 79.662 91.3326 79.6743 91.2812 79.6742ZM71.9033 68.6939L91.2842 79.0179L129.6 59.3211L110.219 48.9971L71.9033 68.6939Z" fill="#262626"/>
<path d="M71.2948 28.6072L32.3091 48.6481L71.2359 68.6892L110.222 48.6481L71.2948 28.6072Z" fill="#262626"/>
<path d="M71.5515 68.689H70.9199V105.446H71.5515V68.689Z" fill="#262626"/>
<path d="M49.3926 46.8286C49.3403 46.8286 49.2894 46.8127 49.2469 46.7831C49.1922 46.7454 49.1551 46.6881 49.1439 46.6238C49.1326 46.5595 49.148 46.4935 49.1867 46.4403C49.2335 46.3761 53.7995 39.9512 48.7022 34.0937C47.8 33.0516 46.6745 32.2142 45.4048 31.64C44.135 31.0659 42.7515 30.769 41.3514 30.7701H41.2827C41.7668 32.4068 41.6804 33.8621 40.995 34.9785C40.7029 35.483 40.2719 35.8981 39.7506 36.177C39.2292 36.4559 38.6382 36.5876 38.0441 36.5572C37.5523 36.518 37.0829 36.3401 36.6934 36.0451C36.304 35.7502 36.0113 35.3512 35.8513 34.8969C35.2907 33.4736 35.8766 32.0936 37.4208 31.2041C38.399 30.6791 39.486 30.3748 40.6013 30.3137C40.2385 29.3774 39.7667 28.4846 39.1951 27.6528C37.3546 24.9169 34.0002 23.0229 29.9917 22.4566C26.5947 21.9769 23.3391 22.5419 21.6966 23.8959C21.6455 23.938 21.5792 23.9586 21.5124 23.9532C21.4457 23.9478 21.3838 23.9168 21.3405 23.867C21.2973 23.8172 21.2761 23.7527 21.2816 23.6877C21.2872 23.6227 21.3191 23.5625 21.3702 23.5204C23.118 22.0796 26.5305 21.4705 30.0643 21.9712C34.216 22.5579 37.6979 24.5308 39.618 27.3845C40.2405 28.2896 40.7469 29.2653 41.1258 30.2901C42.6362 30.2548 44.1355 30.5497 45.5132 31.1532C46.8909 31.7567 48.112 32.6533 49.0864 33.777C54.4407 39.9293 49.6465 46.6587 49.5975 46.726C49.5742 46.7577 49.5434 46.7835 49.5078 46.8014C49.4722 46.8192 49.4327 46.8285 49.3926 46.8286ZM40.7653 30.7881C39.6839 30.8329 38.6278 31.1202 37.6792 31.6276C36.3463 32.3953 35.8526 33.523 36.3243 34.721C36.4521 35.0881 36.6871 35.411 37.0004 35.6502C37.3138 35.8893 37.692 36.0344 38.0888 36.0676C38.5883 36.0894 39.0843 35.9755 39.5211 35.7386C39.958 35.5018 40.3185 35.1513 40.5624 34.7265C41.1915 33.701 41.2491 32.338 40.7645 30.7881H40.7653Z" fill="#0D0D0D"/>
<path d="M17.3363 27.8604C16.907 27.986 16.4442 27.9434 16.0467 27.7419C15.6491 27.5403 15.348 27.1956 15.2076 26.7813C15.0672 26.3669 15.0986 25.9155 15.295 25.5233C15.4914 25.1311 15.8373 24.829 16.2592 24.6813C16.681 24.5337 17.1454 24.5521 17.5535 24.7327C17.9616 24.9133 18.2811 25.2419 18.444 25.6484C18.6069 26.0549 18.6004 26.5072 18.4258 26.9091C18.2511 27.3109 17.9223 27.6306 17.5091 27.7999C17.4527 27.8232 17.395 27.8434 17.3363 27.8604ZM16.4963 25.128C16.4553 25.1399 16.4151 25.154 16.3757 25.1702C16.0851 25.2895 15.8537 25.5146 15.731 25.7975C15.6082 26.0803 15.6038 26.3987 15.7186 26.6846C15.8335 26.9706 16.0585 27.2017 16.3457 27.3286C16.633 27.4555 16.9598 27.4683 17.2566 27.3641C17.5534 27.2599 17.7966 27.0471 17.9346 26.771C18.0725 26.4948 18.0943 26.1772 17.9951 25.8857C17.896 25.5942 17.6839 25.3518 17.4039 25.2103C17.124 25.0688 16.7983 25.0392 16.4963 25.128Z" fill="#0D0D0D"/>
<path d="M17.3331 24.0072C16.9269 24.1253 16.4903 24.093 16.1071 23.9167C15.724 23.7403 15.4213 23.4323 15.2573 23.0519C15.1259 22.7469 15.0903 22.4108 15.155 22.0862C15.2198 21.7615 15.3821 21.4628 15.6212 21.2279C15.8604 20.993 16.1658 20.8324 16.4988 20.7664C16.8318 20.7004 17.1774 20.732 17.4919 20.8572C17.8064 20.9824 18.0757 21.1956 18.2657 21.4698C18.4558 21.744 18.558 22.0668 18.5595 22.3976C18.561 22.7283 18.4617 23.052 18.2742 23.3278C18.0866 23.6036 17.8192 23.8191 17.5059 23.947C17.4494 23.97 17.3917 23.9901 17.3331 24.0072ZM16.494 21.2745C16.4526 21.2866 16.4119 21.3008 16.372 21.3171C16.0756 21.4382 15.8408 21.669 15.7191 21.9586C15.5975 22.2482 15.5989 22.573 15.7232 22.8616C15.8138 23.0719 15.9652 23.2522 16.1588 23.3806C16.3525 23.509 16.5803 23.5801 16.8146 23.5851C17.0489 23.5902 17.2797 23.5291 17.479 23.4092C17.6784 23.2893 17.8378 23.1157 17.938 22.9095C18.0381 22.7033 18.0747 22.4732 18.0433 22.2472C18.012 22.0211 17.914 21.8087 17.7613 21.6358C17.6085 21.4628 17.4075 21.3366 17.1826 21.2724C16.9577 21.2083 16.7186 21.2089 16.494 21.2743V21.2745Z" fill="#0D0D0D"/>
<path d="M16.8427 25.7463C18.0834 25.7463 19.0892 25.0924 19.0892 24.2859C19.0892 23.4793 18.0834 22.8254 16.8427 22.8254C15.602 22.8254 14.5962 23.4793 14.5962 24.2859C14.5962 25.0924 15.602 25.7463 16.8427 25.7463Z" fill="white"/>
<path d="M17.8373 25.8537C17.5152 25.9464 17.181 25.9931 16.8452 25.9924C15.4435 25.9924 14.344 25.2449 14.344 24.2881C14.344 23.3313 15.4402 22.581 16.8414 22.5795C17.4523 22.5681 18.0533 22.7305 18.5707 23.0468C18.8031 23.1646 18.9979 23.3422 19.1339 23.5602C19.2699 23.7782 19.342 24.0283 19.3422 24.2833C19.3424 24.5384 19.2709 24.7886 19.1353 25.0069C18.9997 25.2251 18.8052 25.403 18.573 25.5213C18.346 25.6669 18.0981 25.779 17.8373 25.8537ZM16.0026 23.1884C15.3275 23.3851 14.849 23.8098 14.8493 24.2868C14.8493 24.9451 15.7631 25.5006 16.8452 25.4996C17.3563 25.5101 17.8595 25.3754 18.2933 25.1121C18.456 25.0392 18.5938 24.9223 18.6904 24.7755C18.7869 24.6286 18.8381 24.4579 18.838 24.2835C18.8378 24.1092 18.7863 23.9386 18.6895 23.7919C18.5927 23.6452 18.4547 23.5286 18.2918 23.4559C17.8577 23.1931 17.3543 23.0593 16.8432 23.0709C16.5586 23.0701 16.2755 23.1097 16.0026 23.1884Z" fill="#0D0D0D"/>
<path d="M17.3936 25.7018L17.3406 22.8617L16.615 22.8331L16.5642 25.735L17.3936 25.7018Z" fill="#0D0D0D"/>
<path d="M13.8625 24.9037C13.9906 24.9037 14.0945 24.8027 14.0945 24.678C14.0945 24.5533 13.9906 24.4523 13.8625 24.4523C13.7345 24.4523 13.6306 24.5533 13.6306 24.678C13.6306 24.8027 13.7345 24.9037 13.8625 24.9037Z" fill="#0D0D0D"/>
<path d="M14.0432 23.6959C14.1713 23.6959 14.2751 23.5948 14.2751 23.4701C14.2751 23.3455 14.1713 23.2444 14.0432 23.2444C13.9151 23.2444 13.8113 23.3455 13.8113 23.4701C13.8113 23.5948 13.9151 23.6959 14.0432 23.6959Z" fill="#0D0D0D"/>
<path d="M89.0893 32.6474C89.0352 32.6474 88.9825 32.6305 88.9391 32.5992C88.8956 32.5679 88.8636 32.5238 88.8477 32.4735C88.0097 29.4277 87.7861 26.2526 88.1893 23.124C88.8424 18.5502 91.434 12.5475 100.071 9.919C101.287 9.53869 102.533 9.26054 103.797 9.0876C104.204 6.61357 105.752 3.92978 109.215 2.07812C117.442 -2.32158 122.999 1.62591 123.054 1.66624C123.107 1.70537 123.143 1.76362 123.152 1.82818C123.162 1.89274 123.144 1.95833 123.104 2.0105C123.064 2.06267 123.004 2.09717 122.938 2.10639C122.871 2.11561 122.804 2.09881 122.75 2.05968C122.698 2.02132 117.387 -1.73141 109.459 2.50944C106.223 4.23986 104.742 6.72349 104.321 9.02908C108.131 8.66391 109.955 9.9008 110.774 10.835C111.28 11.3968 111.606 12.0912 111.71 12.8318C111.814 13.5724 111.692 14.3264 111.358 14.9999C111.095 15.5442 110.668 15.998 110.134 16.3013C109.601 16.6046 108.985 16.7432 108.368 16.6988C106.241 16.5773 104.48 14.8353 103.883 12.2607C103.687 11.3892 103.634 10.4926 103.728 9.60498C102.539 9.77124 101.367 10.0337 100.222 10.3897C93.4906 12.4383 89.6112 16.7463 88.6896 23.1931C88.2947 26.2508 88.5125 29.3539 89.3308 32.3309C89.3424 32.3677 89.3449 32.4066 89.3382 32.4445C89.3316 32.4824 89.3159 32.5182 89.2924 32.5491C89.2689 32.58 89.2383 32.6052 89.203 32.6225C89.1677 32.6398 89.1288 32.6488 89.0893 32.6488V32.6474ZM104.243 9.54351C104.138 10.4142 104.183 11.296 104.376 12.1523C104.922 14.5076 106.501 16.0993 108.398 16.2077C108.915 16.2438 109.431 16.1269 109.879 15.8724C110.326 15.6179 110.685 15.2376 110.906 14.7815C111.195 14.1942 111.3 13.5372 111.208 12.8923C111.116 12.2474 110.831 11.6431 110.389 11.1547C109.207 9.80539 107.052 9.26047 104.243 9.54351Z" fill="#0D0D0D"/>
<path d="M128.938 4.15176C128.598 4.15107 128.265 4.05673 127.977 3.87965C127.69 3.70256 127.46 3.44994 127.313 3.15094C127.167 2.85194 127.11 2.51875 127.15 2.18982C127.19 1.8609 127.325 1.54965 127.538 1.29199C127.752 1.03434 128.037 0.840785 128.359 0.733668C128.681 0.626552 129.027 0.61024 129.358 0.686616C129.689 0.762991 129.991 0.928941 130.23 1.16531C130.468 1.40168 130.633 1.69884 130.705 2.02249C130.762 2.27904 130.759 2.54468 130.696 2.79994C130.634 3.05521 130.514 3.29363 130.344 3.49777C130.175 3.70191 129.961 3.86659 129.717 3.97974C129.474 4.0929 129.208 4.15168 128.938 4.15176ZM128.942 1.13109C128.673 1.13108 128.411 1.2122 128.192 1.36325C127.973 1.51431 127.807 1.72788 127.717 1.97451C127.628 2.22115 127.619 2.48871 127.693 2.74033C127.766 2.99194 127.918 3.21522 128.127 3.3794C128.336 3.54357 128.592 3.64055 128.861 3.65697C129.129 3.67339 129.396 3.60845 129.624 3.47109C129.853 3.33373 130.032 3.13072 130.137 2.89003C130.242 2.64935 130.268 2.38284 130.211 2.12724C130.15 1.84444 129.99 1.59096 129.759 1.40951C129.528 1.22805 129.239 1.12972 128.942 1.13109Z" fill="#0D0D0D"/>
<path d="M128.177 8.16527C127.714 8.16524 127.269 7.99242 126.933 7.68239C126.597 7.37235 126.396 6.94871 126.371 6.49866C126.346 6.04861 126.499 5.60641 126.799 5.2631C127.099 4.91978 127.523 4.70147 127.983 4.65312C128.444 4.60476 128.906 4.73004 129.274 5.00315C129.642 5.27627 129.889 5.67644 129.964 6.12129C130.038 6.56614 129.934 7.02181 129.674 7.39449C129.413 7.76718 129.016 8.02851 128.564 8.1247C128.437 8.15166 128.307 8.16526 128.177 8.16527ZM128.184 5.14435C128.09 5.14439 127.997 5.1542 127.906 5.17361C127.583 5.2426 127.3 5.42935 127.114 5.69545C126.929 5.96154 126.855 6.28674 126.908 6.60413C126.962 6.92152 127.138 7.20696 127.401 7.40173C127.664 7.59649 127.993 7.68576 128.322 7.65117C128.65 7.61658 128.953 7.46076 129.167 7.21577C129.381 6.97079 129.49 6.65526 129.473 6.33412C129.455 6.01298 129.311 5.71066 129.072 5.48934C128.832 5.26803 128.514 5.14456 128.184 5.14435Z" fill="#0D0D0D"/>
<path d="M130.891 4.87005C131.05 4.03013 130.132 3.16112 128.84 2.92907C127.548 2.69702 126.371 3.1898 126.212 4.02973C126.053 4.86965 126.971 5.73865 128.263 5.9707C129.555 6.20275 130.732 5.70998 130.891 4.87005Z" fill="white"/>
<path d="M128.9 6.27442C128.671 6.27406 128.443 6.25348 128.218 6.21294C127.582 6.11034 126.991 5.82952 126.518 5.4049C126.31 5.23268 126.151 5.01234 126.054 4.76426C125.957 4.51617 125.926 4.24835 125.964 3.98555C126.025 3.72696 126.152 3.48755 126.334 3.28941C126.515 3.09128 126.745 2.94082 127.002 2.85194C127.603 2.63101 128.254 2.57421 128.886 2.68768C129.518 2.80115 130.106 3.08056 130.586 3.49571C130.793 3.66794 130.953 3.88828 131.05 4.13636C131.146 4.38444 131.177 4.65227 131.14 4.91507C131.078 5.17365 130.951 5.41307 130.77 5.6112C130.589 5.80933 130.359 5.95979 130.102 6.04868C129.721 6.20213 129.312 6.27892 128.9 6.27442ZM128.202 3.11751C127.859 3.11326 127.519 3.17658 127.201 3.30366C127.022 3.36215 126.86 3.4633 126.731 3.59795C126.602 3.7326 126.509 3.8965 126.461 4.07481C126.44 4.25798 126.467 4.44328 126.538 4.61396C126.61 4.78463 126.724 4.93528 126.87 5.05228C127.279 5.39944 127.776 5.6332 128.309 5.72903C128.842 5.82486 129.393 5.77924 129.902 5.59695C130.081 5.53847 130.243 5.43732 130.372 5.30267C130.501 5.16802 130.594 5.00412 130.642 4.8258C130.663 4.64263 130.636 4.45728 130.565 4.28658C130.493 4.11588 130.379 3.96524 130.233 3.84834C129.831 3.49123 129.33 3.25598 128.793 3.17136C128.598 3.13609 128.401 3.11807 128.203 3.11751H128.202Z" fill="#0D0D0D"/>
<path d="M128.26 2.87256L127.752 5.83963L128.501 6.00586L129.13 2.99379L128.26 2.87256Z" fill="#0D0D0D"/>
<path d="M131.305 6.06458C131.441 6.06458 131.551 5.95757 131.551 5.82557C131.551 5.69356 131.441 5.58655 131.305 5.58655C131.17 5.58655 131.06 5.69356 131.06 5.82557C131.06 5.95757 131.17 6.06458 131.305 6.06458Z" fill="#0D0D0D"/>
<path d="M131.734 4.84107C131.869 4.84107 131.979 4.73406 131.979 4.60206C131.979 4.47005 131.869 4.36304 131.734 4.36304C131.598 4.36304 131.488 4.47005 131.488 4.60206C131.488 4.73406 131.598 4.84107 131.734 4.84107Z" fill="#0D0D0D"/>
</svg>
