<svg width="297" height="143" viewBox="0 0 297 143" fill="none" xmlns="http://www.w3.org/2000/svg">
<g clip-path="url(#clip0_1187_4689)">
<path d="M25.4476 140.858H285.161C306.684 128.368 295.606 90.7697 277.632 83.1491C258.274 74.9417 289.013 46.5778 259.2 37.3616C239.731 31.3458 213.348 38.0677 200.464 25.1192C185.323 9.91473 160.169 -8.6002 113.327 5.78808C77.1959 16.8842 96.8204 38.2694 37.6992 44.707C7.2995 48.0175 13.1685 76.3447 16.0113 82.2046C18.4782 87.3033 34.8105 95.3915 12.1139 106.534C-21.1836 122.866 24.6681 140.565 25.4476 140.858Z" fill="#EAFCFC"/>
<path d="M96.9121 98.867C96.9121 98.867 123.524 65.1568 139.343 65.2669C155.171 65.3769 172.412 87.4683 194.925 106.341C220.162 127.488 187.212 128.377 185.305 128.551C183.407 128.726 117.784 126.406 116.693 125.268C115.601 124.131 98.0767 109.505 98.0767 109.505L96.9121 98.867Z" fill="#C5DDF9"/>
<path d="M233.437 99.884H234.565V87.4215H233.437V99.884Z" fill="#355389"/>
<path d="M234.009 63.2402L237.677 92.8971H230.341L234.009 63.2402Z" fill="#3C8F7C"/>
<path d="M236.347 82.1402L231.111 86.6336L231.313 85.0013L236.182 80.8288L236.347 82.1402Z" fill="#50BFA5"/>
<path d="M235.54 75.6384L232.34 76.7389L232.486 75.5192L235.402 74.5197L235.54 75.6384Z" fill="#50BFA5"/>
<path d="M80.3048 77.9312L83.5878 104.415H77.031L80.3048 77.9312Z" fill="#3C8F7C"/>
<path d="M86.082 81.8285L88.5763 101.994H83.5876L86.082 81.8285Z" fill="#3C8F7C"/>
<path d="M91.0705 87.8259L93.5648 108.001H88.5762L91.0705 87.8259Z" fill="#3C8F7C"/>
<path d="M74.1792 83.846L77.453 110.33H70.8962L74.1792 83.846Z" fill="#3C8F7C"/>
<path d="M86.5681 92.081C114.996 96.8129 157.647 139.317 190.129 139.317C222.61 139.317 229.607 129.148 241.795 131.303C253.973 133.448 270.333 139.317 270.333 139.317L28.9233 140.033C28.9233 140.033 58.1401 87.3582 86.5681 92.081Z" fill="#86B1F2"/>
<path d="M189.459 79.701L192.742 106.176H186.186L189.459 79.701Z" fill="#3C8F7C"/>
<path d="M197.263 87.4958L199.757 107.661H194.769L197.263 87.4958Z" fill="#3C8F7C"/>
<path d="M177.602 98.2618L180.096 118.427H175.108L177.602 98.2618Z" fill="#3C8F7C"/>
<path d="M183.334 85.6067L186.608 112.091H180.051L183.334 85.6067Z" fill="#3C8F7C"/>
<path d="M215.412 92.081C186.983 96.8129 144.332 139.317 111.851 139.317C79.3603 139.317 72.3725 129.148 60.1851 131.303C48.0069 133.448 31.647 139.317 31.647 139.317L273.056 140.033C273.056 140.033 243.83 87.3582 215.412 92.081Z" fill="#86B1F2"/>
<path d="M205.676 131.767H206.96V117.544H205.676V131.767Z" fill="#355389"/>
<path d="M206.324 89.9626L210.505 123.801H202.133L206.324 89.9626Z" fill="#3C8F7C"/>
<path d="M208.992 111.531L203.022 116.648L203.251 114.796L208.8 110.027L208.992 111.531Z" fill="#50BFA5"/>
<path d="M208.075 104.113L204.416 105.36L204.59 103.975L207.91 102.838L208.075 104.113Z" fill="#50BFA5"/>
<path d="M220.178 137.83H221.398V116.381H220.178V137.83Z" fill="#355389"/>
<path d="M220.464 78.1421L226.498 121.435H214.439L220.464 78.1421Z" fill="#3C8F7C"/>
<path d="M226.113 118.684L215.292 115.273L215.457 114.099L225.939 117.409L226.113 118.684Z" fill="#50BFA5"/>
<path d="M224.215 105.011L217.044 102.746L217.2 101.572L224.032 103.727L224.215 105.011Z" fill="#50BFA5"/>
<path d="M28.9233 140.033C28.9233 140.033 60.0933 112.962 100.278 111.302C113.767 110.743 169.028 121.94 215.558 130.734C217.512 131.101 221.739 134.723 223.72 135.099C245.747 139.244 266.279 140.115 272.919 140.381L28.9233 140.033Z" fill="#96D9C9"/>
<path d="M279.457 110.257L279.503 107.927C279.503 106.194 278.182 104.8 276.559 104.8C272.46 104.8 269.131 108.331 269.131 112.687V115.869C269.131 117.263 268.389 118.473 267.306 119.088C266.316 119.638 265.72 120.748 265.72 121.931V123.609C265.72 125.424 266.527 127.121 267.857 128.258C268.636 128.927 269.14 129.945 269.14 131.092V133.467C269.14 136.099 271.149 138.226 273.625 138.226H275.037C277.513 138.226 279.521 136.099 279.521 133.467C279.118 130.147 280.099 128.231 281.236 127.13C282.905 125.516 283.886 123.251 283.886 120.858V120.518C283.886 117.987 282.786 115.621 280.952 114.007C280.117 113.31 279.457 112.155 279.457 110.257Z" fill="#4E9B87"/>
<path d="M284.07 140.986C284.07 140.986 272.625 125.791 265.427 123.462C258.228 121.133 265.014 130.386 265.014 130.386C265.014 130.386 252.24 116.419 247.554 117.675C243.262 118.831 247.554 127.488 247.554 127.488C247.554 127.488 242.712 122.692 236.843 122.692C230.974 122.692 241.382 140.638 241.382 140.638L284.07 140.986Z" fill="#96D9C9"/>
<path d="M247.554 140.647C247.554 140.647 239.731 119.73 230.047 122.151C222.198 124.113 227.782 134.631 227.296 134.155C226.819 133.678 222.61 126.534 215.797 126.534C208.983 126.534 217.888 136.172 217.888 136.172C217.888 136.172 203.38 131.642 202.243 136.401C201.298 140.354 206.571 140.647 206.571 140.647H247.554Z" fill="#3C8F7C"/>
<path d="M68.7594 136.741C68.8052 136.484 68.8236 136.209 68.8236 135.943C68.8236 132.917 65.9899 130.459 62.4869 130.459C58.9838 130.459 56.1501 132.917 56.1501 135.943C56.1501 136.218 56.1685 136.484 56.2143 136.741H68.7594Z" fill="#3C8F7C"/>
<path d="M75.9308 135.393C75.9766 135.026 75.995 134.65 75.995 134.265C75.995 130 73.1613 126.534 69.6582 126.534C66.1552 126.534 63.3215 129.991 63.3215 134.265C63.3215 134.65 63.3399 135.026 63.3857 135.393H75.9308Z" fill="#50BFA5"/>
<path d="M73.6106 140.134C73.5647 139.877 73.5464 139.602 73.5464 139.336C73.5464 136.31 76.38 133.852 79.8831 133.852C83.3862 133.852 86.2198 136.31 86.2198 139.336C86.2198 139.611 86.2015 139.877 86.1556 140.134H73.6106Z" fill="#50BFA5"/>
<path d="M63.4776 140.134C63.4225 139.767 63.395 139.391 63.395 139.006C63.395 134.741 66.9898 131.275 71.4282 131.275C75.8667 131.275 79.4615 134.732 79.4615 139.006C79.4615 139.391 79.434 139.767 79.3789 140.134H63.4776Z" fill="#3C8F7C"/>
<path d="M69.6398 131.275C67.4206 131.275 65.4398 132.376 64.1376 134.09C63.4682 133.934 62.7621 133.843 62.0284 133.843C58.0944 133.843 54.9031 136.3 54.9031 139.327C54.9031 139.602 54.9306 139.868 54.9764 140.124H76.6918C76.7377 139.758 76.7652 139.382 76.7652 138.997C76.7652 134.741 73.5739 131.275 69.6398 131.275Z" fill="#50BFA5"/>
<path d="M42.1739 123.856C40.3123 120.94 39.9639 117.428 40.0006 114.988C40.0372 112.338 40.5324 110.357 40.5324 110.339L40.3949 110.293C40.3857 110.311 39.8997 112.311 39.8538 114.979C39.8171 117.446 40.1656 120.995 42.0547 123.948L42.1739 123.856Z" fill="#3C8F7C"/>
<path d="M40.9907 109.844C40.9448 110.44 40.6789 110.944 40.2937 111.256C39.9636 110.843 39.7802 110.266 39.8261 109.67C39.8719 109.073 40.1378 108.569 40.523 108.257C40.8531 108.679 41.0365 109.248 40.9907 109.844Z" fill="#3C8F7C"/>
<path d="M39.7252 111.229C40.0461 111.751 40.1378 112.338 40.0369 112.852C39.5509 112.732 39.0832 112.393 38.7714 111.88C38.4505 111.357 38.3588 110.77 38.4596 110.256C38.9457 110.376 39.4134 110.715 39.7252 111.229Z" fill="#3C8F7C"/>
<path d="M39.0191 112.861C39.5143 113.182 39.8444 113.677 39.9728 114.191C39.5051 114.319 38.9549 114.246 38.4689 113.925C37.9737 113.604 37.6435 113.108 37.5151 112.595C37.9737 112.457 38.5239 112.54 39.0191 112.861Z" fill="#3C8F7C"/>
<path d="M39.2391 115.126C39.6243 115.383 39.8719 115.814 39.9361 116.291C39.5326 116.465 39.074 116.446 38.6889 116.19C38.3037 115.933 38.0561 115.502 37.9919 115.025C38.3863 114.851 38.8448 114.869 39.2391 115.126Z" fill="#3C8F7C"/>
<path d="M40.8442 112.439C41.2843 112.21 41.7704 112.191 42.1922 112.356C42.0822 112.806 41.7887 113.218 41.3485 113.448C40.9084 113.677 40.4223 113.695 40.0005 113.53C40.1105 113.081 40.404 112.668 40.8442 112.439Z" fill="#3C8F7C"/>
<path d="M40.7983 114.007C41.2384 113.778 41.7245 113.76 42.1463 113.925C42.0363 114.374 41.7428 114.787 41.3026 115.016C40.8625 115.245 40.3764 115.264 39.9546 115.098C40.0646 114.64 40.3581 114.236 40.7983 114.007Z" fill="#3C8F7C"/>
<path d="M39.5143 117.611C39.7436 117.666 39.9361 117.822 40.0554 118.024C39.8903 118.161 39.6702 118.216 39.441 118.171C39.2117 118.116 39.0191 117.96 38.8999 117.758C39.065 117.62 39.2851 117.556 39.5143 117.611Z" fill="#3C8F7C"/>
<path d="M41.4034 125.91C37.1392 124.892 33.8837 121.729 31.9029 119.262C29.7571 116.584 28.6016 114.108 28.5924 114.09L28.4182 114.181C28.4274 114.209 29.592 116.694 31.7471 119.39C33.7462 121.885 37.0383 125.076 41.3576 126.103L41.4034 125.91Z" fill="#3C8F7C"/>
<path d="M28.6474 113.145C29.0968 113.787 29.2435 114.557 29.1243 115.254C28.4548 115.172 27.8038 114.787 27.3452 114.136C26.8867 113.485 26.7492 112.723 26.8684 112.026C27.547 112.118 28.1981 112.494 28.6474 113.145Z" fill="#3C8F7C"/>
<path d="M28.5373 115.795C29.2801 115.997 29.867 116.483 30.188 117.098C29.6103 117.474 28.8583 117.611 28.1155 117.409C27.3727 117.208 26.7858 116.722 26.4648 116.107C27.0426 115.731 27.7945 115.603 28.5373 115.795Z" fill="#3C8F7C"/>
<path d="M29.1703 118.143C29.9223 117.969 30.6651 118.125 31.2245 118.51C30.8668 119.115 30.2524 119.592 29.5004 119.766C28.7485 119.94 28.0057 119.785 27.4463 119.399C27.8039 118.794 28.4092 118.317 29.1703 118.143Z" fill="#3C8F7C"/>
<path d="M30.8668 120.271C31.6188 120.096 32.3616 120.252 32.921 120.637C32.5634 121.243 31.949 121.72 31.197 121.894C30.445 122.068 29.7022 121.912 29.1428 121.527C29.5005 120.922 30.1149 120.454 30.8668 120.271Z" fill="#3C8F7C"/>
<path d="M30.3623 116.731C30.3257 116.006 30.5641 115.319 30.9676 114.833C31.4169 115.218 31.7287 115.832 31.7654 116.566C31.8021 117.29 31.5637 117.978 31.1602 118.464C30.7016 118.07 30.399 117.455 30.3623 116.731Z" fill="#3C8F7C"/>
<path d="M32.132 118.932C32.0862 118.207 32.3154 117.519 32.7098 117.024C33.1683 117.4 33.4892 118.015 33.5351 118.739C33.5809 119.464 33.3517 120.151 32.9573 120.647C32.4988 120.271 32.1779 119.656 32.132 118.932Z" fill="#3C8F7C"/>
<path d="M33.5994 122.38C33.8746 122.196 34.1955 122.16 34.4798 122.251C34.4339 122.554 34.2597 122.838 33.9846 123.022C33.7095 123.205 33.3885 123.242 33.1042 123.15C33.1501 122.838 33.3243 122.554 33.5994 122.38Z" fill="#3C8F7C"/>
<path d="M52.7015 131.944L52.8849 131.935C52.619 127.056 54.4072 122.462 55.957 119.463C57.6352 116.217 59.4051 114.099 59.4234 114.071L59.2858 113.934C59.2675 113.952 57.4885 116.089 55.7919 119.353C54.2422 122.37 52.4356 127.011 52.7015 131.944Z" fill="#3C8F7C"/>
<path d="M60.2395 113.787C59.8176 114.493 59.2124 114.933 58.598 115.062C58.4971 114.319 58.6438 113.493 59.0657 112.778C59.4875 112.072 60.0927 111.632 60.7072 111.504C60.808 112.246 60.6613 113.081 60.2395 113.787Z" fill="#3C8F7C"/>
<path d="M57.9835 114.64C58.011 115.493 57.7543 116.29 57.3324 116.859C56.8647 116.382 56.553 115.649 56.5254 114.787C56.4979 113.934 56.7547 113.136 57.1765 112.567C57.6442 113.044 57.956 113.778 57.9835 114.64Z" fill="#3C8F7C"/>
<path d="M56.1863 116.162C56.5348 116.896 56.599 117.73 56.4156 118.464C55.8195 118.308 55.2601 117.84 54.9116 117.107C54.5632 116.373 54.499 115.538 54.6824 114.805C55.2784 114.961 55.8378 115.438 56.1863 116.162Z" fill="#3C8F7C"/>
<path d="M54.9484 119.913C55.1134 120.206 55.1685 120.555 55.1134 120.866C54.8567 120.821 54.6091 120.646 54.444 120.353C54.2789 120.059 54.2239 119.711 54.2789 119.399C54.5357 119.445 54.7833 119.619 54.9484 119.913Z" fill="#3C8F7C"/>
<path d="M54.4161 121.261C54.5812 121.554 54.6362 121.903 54.5812 122.215C54.3244 122.169 54.0768 121.994 53.9118 121.701C53.7467 121.408 53.6917 121.059 53.7467 120.747C54.0035 120.793 54.2511 120.967 54.4161 121.261Z" fill="#3C8F7C"/>
<path d="M58.4696 116.896C59.1023 116.905 59.6525 117.226 60.0102 117.721C59.6067 118.207 59.029 118.51 58.4054 118.501C57.7726 118.491 57.2224 118.17 56.8647 117.675C57.2591 117.189 57.8368 116.887 58.4696 116.896Z" fill="#3C8F7C"/>
<path d="M57.4425 118.794C58.0752 118.803 58.6254 119.124 58.9831 119.619C58.5796 120.105 58.0018 120.408 57.3783 120.399C56.7455 120.39 56.1953 120.069 55.8376 119.573C56.2411 119.087 56.8189 118.785 57.4425 118.794Z" fill="#3C8F7C"/>
<path d="M55.7554 121.389C56.168 121.398 56.5257 121.6 56.755 121.921C56.489 122.233 56.113 122.435 55.7095 122.425C55.2969 122.416 54.9392 122.214 54.71 121.894C54.9667 121.582 55.3427 121.389 55.7554 121.389Z" fill="#3C8F7C"/>
<path d="M36.7911 139.95C36.7911 139.134 41.6973 140.097 42.1099 138.987C42.5226 137.878 37.9099 137.813 37.9099 136.319C37.9099 134.824 40.2575 135.869 41.6422 135.869C43.0178 135.869 38.9186 135.227 38.9186 134.695C38.9186 134.164 40.3584 134.448 40.3584 133.879C40.3584 133.32 32.802 132.889 33.6915 131.513C34.5719 130.138 38.6344 131.917 39.7531 131.202C40.8719 130.486 33.8016 129.707 33.6182 128.652C33.4439 127.588 38.8269 129.56 39.5881 128.799C40.3492 128.038 31.0688 125.296 31.4632 123.278C31.8483 121.261 38.4968 125.855 40.1566 125.36C41.8165 124.865 31.7841 117.795 34.1134 115.043C36.4427 112.292 40.8994 124.159 42.4217 123.737C43.944 123.315 40.5143 116.236 42.0732 115.007C43.623 113.778 48.0798 124.975 48.3641 127.268C48.6484 129.569 49.2078 122.325 51.6471 121.472C54.0864 120.628 51.7204 125.956 52.1423 127.588C52.5641 129.212 54.5449 123.416 57.2135 123.847C59.8821 124.269 52.3899 129.569 53.1327 131.128C53.8755 132.687 59.662 125.938 61.4685 127.754C63.2843 129.569 54.4991 134.595 54.9851 135.97C55.4619 137.346 60.7349 134.989 62.248 136.502C63.7611 138.015 56.5899 138.978 55.6362 138.978C54.6825 138.978 51.051 140.17 54.5999 139.941C58.1305 139.712 36.7911 140.757 36.7911 139.95Z" fill="#3C8F7C"/>
<path d="M50.7761 140.885C50.7761 140.885 56.6818 141.206 58.4059 140.115C60.1299 139.033 58.7727 138.189 58.7727 138.189C58.7727 138.189 64.2382 138.07 64.2198 136.777C64.2107 135.484 62.881 135.557 62.881 135.557C62.881 135.557 65.6413 133.687 65.1277 132.513C64.3391 130.716 59.8456 133.843 59.8456 133.843C59.8456 133.843 61.322 132.091 60.1299 131.688C56.8561 130.569 50.7761 140.885 50.7761 140.885Z" fill="#50BFA5"/>
<path d="M65.127 132.513C65.6405 133.678 62.8802 135.557 62.8802 135.557C62.8802 135.557 64.8702 135.53 64.5493 136.786C64.2283 138.043 59.2213 138.464 59.2213 138.464C59.2213 138.464 60.9728 138.804 59.2488 139.886C57.5248 140.968 50.7754 140.876 50.7754 140.876L65.127 132.513Z" fill="#96D9C9"/>
<path d="M26.5852 89.3208C26.5944 88.9998 27.0346 88.7522 27.273 89.0365C27.5023 89.3208 27.4931 89.1282 27.7223 89.7426C28.3734 91.4942 29.3363 93.1907 30.4459 94.6763C32.5826 97.5191 34.701 98.9497 37.1036 100.371C36.1132 98.1427 35.4529 95.7584 35.3704 93.3558C35.3429 92.4846 35.3521 91.5767 35.7281 90.7697C35.8289 90.5496 36.2324 90.5955 36.2783 90.8431C36.48 92.0811 36.1866 93.0165 36.5809 95.2357C37.5346 100.527 41.322 106.139 44.9809 110.073C44.284 103.416 43.9447 95.8593 45.1919 89.1466C45.3936 88.0461 45.7237 87.0007 46.0264 85.9186C46.0997 85.6618 46.4574 85.7719 46.4115 86.0287C46.3473 86.3863 45.7512 91.0081 45.7146 91.3199C45.1368 96.4278 45.2469 102.095 45.7054 107.258C48.539 103.416 50.4373 98.9313 51.3268 94.2453C51.5928 92.8606 51.6569 91.43 52.0238 90.0728C52.0788 89.8894 52.3814 89.8619 52.4181 90.0728C52.7941 92.1086 52.0421 95.7125 51.4919 97.675C50.3731 101.646 48.5849 105.204 46.1456 108.377C46.0539 108.496 50.0705 139.556 49.9604 139.95C49.777 140.611 48.6216 141.078 48.4473 139.904C48.374 139.428 46.1639 120.546 45.1735 111.797C44.7975 111.586 44.5591 111.22 43.587 110.128C41.3495 107.606 39.1303 104.479 37.6538 101.517C36.7643 101.462 30.3451 98.3444 27.163 91.2374C27.0713 91.0357 26.6586 90.0728 26.5944 89.8527C26.5302 89.6601 26.5761 89.5042 26.5852 89.3208Z" fill="#184655"/>
<path d="M47.1911 79.2518C47.1177 78.2981 47.0811 77.3169 47.0811 76.3265C47.0811 65.2303 51.7854 56.2434 57.5994 56.2434C63.4043 56.2434 68.1178 65.2395 68.1178 76.3265C68.1178 77.3169 68.0811 78.2981 68.0078 79.2518H47.1911Z" fill="#50BFA5"/>
<path d="M35.2971 74.3181C35.2237 72.9701 35.187 71.5945 35.187 70.1915C35.187 54.5468 39.8914 41.8643 45.7054 41.8643C51.5194 41.8643 56.2146 54.5377 56.2146 70.1823C56.2146 71.5854 56.1779 72.9609 56.1046 74.3089H35.2971V74.3181Z" fill="#96D9C9"/>
<path d="M39.1396 91.6684C39.213 90.7147 39.2497 89.7334 39.2497 88.743C39.2497 77.6469 34.5453 68.66 28.7313 68.66C22.9264 68.66 18.2129 77.6561 18.2129 88.743C18.2129 89.7334 18.2496 90.7147 18.3229 91.6684H39.1396Z" fill="#96D9C9"/>
<path d="M55.9763 91.6684C56.0681 90.3204 56.1139 88.9448 56.1139 87.5417C56.1139 71.8971 50.144 59.2145 42.7802 59.2145C35.4164 59.2145 29.4465 71.8971 29.4465 87.5417C29.4465 88.9448 29.4924 90.3204 29.5841 91.6684H55.9763Z" fill="#50BFA5"/>
<path d="M45.7422 59.2145C49.4195 59.2145 52.7117 63.2403 54.8759 69.5495C55.9763 68.9718 57.1501 68.66 58.3698 68.66C64.8991 68.66 70.1995 77.6561 70.1995 88.7431C70.1995 89.7334 70.1537 90.7147 70.0712 91.6684H34.0317C33.9492 90.3204 33.9033 88.9448 33.9033 87.5417C33.9125 71.8971 39.2038 59.2145 45.7422 59.2145Z" fill="#96D9C9"/>
<path d="M27.8319 135.457C27.8686 135.099 27.8869 134.723 27.8869 134.347C27.8869 130.156 25.5026 126.754 22.5589 126.754C19.6152 126.754 17.231 130.156 17.231 134.347C17.231 134.723 17.2493 135.09 17.286 135.457H27.8319Z" fill="#3C8F7C"/>
<path d="M33.8568 133.586C33.8935 133.072 33.9118 132.559 33.9118 132.027C33.9118 126.112 31.5275 121.325 28.5838 121.325C25.6402 121.325 23.2559 126.121 23.2559 132.027C23.2559 132.559 23.2742 133.082 23.3109 133.586H33.8568Z" fill="#50BFA5"/>
<path d="M31.9037 140.143C31.867 139.785 31.8486 139.409 31.8486 139.033C31.8486 134.842 34.2329 131.44 37.1766 131.44C40.1203 131.44 42.5046 134.842 42.5046 139.033C42.5046 139.409 42.4862 139.776 42.4496 140.143H31.9037Z" fill="#50BFA5"/>
<path d="M23.3842 140.143C23.3383 139.629 23.3108 139.116 23.3108 138.584C23.3108 132.669 26.337 127.882 30.0602 127.882C33.7925 127.882 36.8095 132.678 36.8095 138.584C36.8095 139.116 36.782 139.638 36.7362 140.143H23.3842Z" fill="#3C8F7C"/>
<path d="M28.5657 127.882C26.7041 127.882 25.0351 129.404 23.9346 131.789C23.3752 131.569 22.7792 131.449 22.1648 131.449C18.8543 131.449 16.1765 134.852 16.1765 139.042C16.1765 139.418 16.1949 139.785 16.2407 140.152H34.4897C34.5355 139.638 34.5539 139.125 34.5539 138.593C34.5539 132.678 31.8761 127.882 28.5657 127.882Z" fill="#50BFA5"/>
<path opacity="0.5" d="M136.977 33.8493C136.5 31.786 134.657 30.2545 132.456 30.2545C132.053 30.2545 131.659 30.3096 131.283 30.4013C130.191 28.072 127.835 26.4672 125.102 26.4672C124.396 26.4672 123.708 26.5772 123.066 26.779C121.59 24.3397 118.912 22.7073 115.858 22.7073C112.217 22.7073 109.118 25.0183 107.944 28.2462C107.11 27.7785 106.156 27.5218 105.138 27.5218C101.947 27.5218 99.3606 30.1078 99.3606 33.2991C99.3606 33.4917 99.3698 33.6751 99.3881 33.8585H136.977V33.8493Z" fill="white"/>
<path opacity="0.5" d="M188.212 69.8796C188.442 68.8892 189.331 68.1464 190.386 68.1464C190.578 68.1464 190.771 68.1739 190.945 68.2197C191.468 67.1009 192.605 66.3215 193.926 66.3215C194.265 66.3215 194.595 66.3765 194.907 66.4682C195.613 65.2944 196.906 64.5057 198.382 64.5057C200.134 64.5057 201.629 65.6154 202.188 67.1743C202.592 66.9542 203.05 66.8258 203.536 66.8258C205.068 66.8258 206.315 68.073 206.315 69.6045C206.315 69.6962 206.306 69.7879 206.306 69.8704H188.212V69.8796Z" fill="white"/>
<path opacity="0.5" d="M156.437 56.9677C156.153 55.748 155.061 54.8402 153.759 54.8402C153.521 54.8402 153.292 54.8677 153.062 54.9319C152.42 53.5563 151.017 52.6026 149.403 52.6026C148.981 52.6026 148.578 52.6668 148.202 52.786C147.331 51.3463 145.744 50.3742 143.938 50.3742C141.783 50.3742 139.949 51.7406 139.252 53.6572C138.757 53.3821 138.197 53.2262 137.592 53.2262C135.703 53.2262 134.171 54.7576 134.171 56.6467C134.171 56.7568 134.181 56.8668 134.19 56.9769H156.437V56.9677Z" fill="white"/>
<path opacity="0.5" d="M199.758 42.6528C199.382 41.0022 197.905 39.7825 196.145 39.7825C195.824 39.7825 195.512 39.8284 195.209 39.9017C194.338 38.0401 192.458 36.7563 190.266 36.7563C189.698 36.7563 189.157 36.8388 188.643 37.0039C187.469 35.0506 185.324 33.7484 182.884 33.7484C179.977 33.7484 177.501 35.5917 176.557 38.1777C175.896 37.8109 175.126 37.6 174.31 37.6C171.761 37.6 169.697 39.6633 169.697 42.2126C169.697 42.3594 169.706 42.5153 169.716 42.662H199.758V42.6528Z" fill="white"/>
<path opacity="0.5" d="M78.5901 62.7633C78.7827 61.9471 79.5163 61.3327 80.3875 61.3327C80.5525 61.3327 80.7084 61.3511 80.8552 61.3877C81.2862 60.4615 82.2307 59.8196 83.322 59.8196C83.6063 59.8196 83.8722 59.8655 84.129 59.9388C84.7159 58.9668 85.7796 58.3157 86.9993 58.3157C88.4482 58.3157 89.6862 59.2327 90.1539 60.5257C90.484 60.3423 90.8692 60.2323 91.2727 60.2323C92.5474 60.2323 93.5744 61.2594 93.5744 62.534C93.5744 62.6074 93.5744 62.6808 93.5653 62.7541H78.5901V62.7633Z" fill="white"/>
<path d="M129.523 54.8301V54.1472H127.216V54.8301H129.523Z" fill="#F7CC7F"/>
<path d="M132.073 70.168V54.0677C132.073 53.0055 131.208 52.1406 130.146 52.1406H126.793C125.73 52.1406 124.865 53.0055 124.865 54.0677V70.168C124.865 71.2303 125.73 72.0952 126.793 72.0952H130.146C131.208 72.0952 132.073 71.2303 132.073 70.168Z" fill="#F47458"/>
<path d="M128.477 72.0952H130.404C131.33 72.0952 132.073 71.6855 132.073 71.1847V53.051C132.073 52.5503 131.542 52.1406 130.632 52.1406H128.477V72.0952Z" fill="#B75742"/>
<path d="M128.79 64.1738V59.5304H127.941V64.1738H128.79Z" fill="#1A1A1A"/>
<path d="M138.932 70.1377V58.4229C138.932 57.3455 138.052 56.4653 136.975 56.4653H133.682C132.604 56.4653 131.724 57.3455 131.724 58.4229V70.1377C131.724 71.2151 132.604 72.0952 133.682 72.0952H136.975C138.052 72.0952 138.932 71.2151 138.932 70.1377Z" fill="#355389"/>
<path d="M135.336 72.0952H137.263C138.189 72.0952 138.933 71.7765 138.933 71.382V57.1937C138.933 56.7991 138.189 56.4805 137.263 56.4805H135.336V72.0952Z" fill="#5184CE"/>
<path d="M136.381 58.5596V58.0284H134.074V58.5596H136.381Z" fill="#F7CC7F"/>
<path d="M135.657 65.8941V62.2522H134.807V65.8941H135.657Z" fill="#1A1A1A"/>
<path d="M101.254 72.3532H100.905V75.8586H101.254V72.3532Z" fill="#13375B"/>
<path d="M142.984 72.3532H142.635V75.8586H142.984V72.3532Z" fill="#13375B"/>
<path d="M127.916 64.8872H104.122C102.953 64.8872 102.012 65.828 102.012 66.9965V69.9707C102.012 71.1392 102.953 72.08 104.122 72.08H127.916C129.084 72.08 130.025 71.1392 130.025 69.9707V66.9965C130.04 65.828 129.084 64.8872 127.916 64.8872Z" fill="#B75742"/>
<path d="M130.04 68.4836V66.5564C130.04 65.6308 129.464 64.8872 128.766 64.8872H103.303C102.605 64.8872 102.028 65.6308 102.028 66.5564V68.4836H130.04Z" fill="#91342A"/>
<path d="M106.535 67.4366H105.579V69.7432H106.535V67.4366Z" fill="#F7CC7F"/>
<path d="M126.474 67.4366H125.518V69.7432H126.474V67.4366Z" fill="#F7CC7F"/>
<path d="M118.902 68.165H112.377V69.0148H118.902V68.165Z" fill="#1A1A1A"/>
<path d="M123.727 57.6793H108.325C107.065 57.6793 106.064 58.696 106.064 59.9403V62.6111C106.064 63.8706 107.081 64.8721 108.325 64.8721H123.727C124.987 64.8721 125.988 63.8554 125.988 62.6111V59.9555C126.003 58.696 124.987 57.6793 123.727 57.6793Z" fill="#4E9B87"/>
<path d="M126.003 61.2909V59.3485C126.003 58.4229 125.594 57.6793 125.093 57.6793H106.959C106.459 57.6793 106.049 58.4229 106.049 59.3485V61.2757H126.003V61.2909Z" fill="#3C8F7C"/>
<path d="M108.735 60.2438H108.052V62.5504H108.735V60.2438Z" fill="#F7CC7F"/>
<path d="M141.451 72.0799L124.957 72.0647L124.683 64.7202H141.451C143.485 64.7202 145.139 66.3742 145.139 68.4076C145.139 70.441 143.485 72.0799 141.451 72.0799Z" fill="#FAE0B2"/>
<path d="M128.477 68.4076C128.477 70.441 126.96 72.0951 125.093 72.0951C123.227 72.0951 121.709 70.441 121.709 68.4076C121.709 66.3742 123.227 64.7202 125.093 64.7202C126.96 64.7202 128.477 66.3742 128.477 68.4076Z" fill="#F7CC7F"/>
<path d="M131.968 72.4288C131.816 72.3074 131.785 72.0949 131.892 71.928C133.015 70.3499 133.318 68.6655 132.817 66.9356C132.544 65.9644 132.059 65.236 131.801 64.8718C131.694 64.7201 131.71 64.5228 131.846 64.4014C131.998 64.2648 132.241 64.28 132.377 64.4621C132.681 64.8718 133.182 65.6761 133.5 66.7231C133.91 68.0888 134.031 70.1678 132.484 72.3681C132.362 72.5198 132.135 72.5502 131.968 72.4288Z" fill="#F47458"/>
<path d="M138.007 72.4288C137.855 72.3074 137.825 72.0949 137.931 71.928C139.054 70.3499 139.358 68.6655 138.857 66.9356C138.584 65.9644 138.098 65.236 137.84 64.8718C137.734 64.7201 137.749 64.5228 137.886 64.4014C138.037 64.2648 138.28 64.28 138.417 64.4621C138.72 64.8718 139.221 65.6761 139.54 66.7231C139.949 68.0888 140.071 70.1678 138.523 72.3681C138.387 72.5198 138.159 72.5502 138.007 72.4288Z" fill="#F47458"/>
<path d="M127.885 67.7398C127.703 66.5865 127.081 65.9947 126.58 65.7064C125.852 65.2815 124.896 65.2208 124.061 65.5395C123.257 65.843 122.62 66.5562 122.377 67.3756C122.164 68.104 122.316 68.8627 122.802 69.4849C123.606 70.5319 124.85 70.365 125.457 70.107C126.004 69.8643 126.413 69.3028 126.504 68.6806C126.58 68.1647 126.337 67.6791 125.897 67.3908C125.457 67.1025 124.896 67.1025 124.471 67.3908C124.152 67.6032 123.834 67.9978 124.137 68.7717L124.38 68.6806C124.183 68.195 124.259 67.846 124.608 67.6184C124.957 67.3908 125.397 67.3908 125.761 67.6184C126.125 67.846 126.307 68.2406 126.246 68.6503C126.171 69.1966 125.822 69.6822 125.351 69.8794C124.82 70.107 123.712 70.2588 122.999 69.3483C122.453 68.6351 122.483 67.9371 122.62 67.4818C122.832 66.7383 123.424 66.0858 124.137 65.8126C124.911 65.5091 125.776 65.5698 126.444 65.9492C127.081 66.3134 127.491 66.9507 127.612 67.8005C127.779 68.8931 127.582 69.758 127.005 70.3802C125.928 71.5486 123.652 71.5335 123.257 71.5183C123.394 71.6093 123.545 71.7004 123.697 71.7763H123.712C124.41 71.7763 126.171 71.6549 127.187 70.5471C127.84 69.8643 128.067 68.9234 127.885 67.7398Z" fill="#F47458"/>
<path d="M123.47 60.2438H122.787V62.5504H123.47V60.2438Z" fill="#F7CC7F"/>
<path d="M118.082 60.9722H113.439V61.822H118.082V60.9722Z" fill="#1A1A1A"/>
<path d="M111.95 57.3788L104.106 72.2504L104.334 72.3707L112.178 57.4992L111.95 57.3788Z" fill="#0D0D0D"/>
<path d="M120.757 57.2648L120.529 57.3852L128.58 72.646L128.808 72.5256L120.757 57.2648Z" fill="#0D0D0D"/>
<path d="M137.331 56.2703L137.092 56.3677L143.615 72.3743L143.854 72.2769L137.331 56.2703Z" fill="#0D0D0D"/>
<path d="M129.511 52.0001L129.268 52.0859L136.417 72.3485L136.66 72.2626L129.511 52.0001Z" fill="#0D0D0D"/>
<path d="M144.578 72.0801H99.3723V72.5505H144.578V72.0801Z" fill="#13375B"/>
<path d="M67.5964 122.672C67.5964 122.672 102.088 128.393 102.513 128.15C102.923 127.907 107.399 108.62 107.399 108.62C107.399 108.62 78.8712 103.491 78.4159 103.491C77.9607 103.491 71.7543 108.454 71.6632 108.787C71.5722 109.121 67.5964 122.672 67.5964 122.672Z" fill="#183658"/>
<path d="M172.832 127.574C173.667 127.65 215.443 126.754 215.443 126.754L212.302 117.149C212.302 117.149 206.505 108.393 203.455 108.545C200.39 108.712 182.195 105.753 179.054 107.938C175.913 110.123 173.106 108.378 171.603 113.598C170.116 118.803 168.948 119.395 170.116 122.536C171.254 125.677 172.832 127.574 172.832 127.574Z" fill="#183658"/>
<path d="M85.017 140.335C92.8697 140.335 99.2356 133.969 99.2356 126.117C99.2356 118.264 92.8697 111.898 85.017 111.898C77.1642 111.898 70.7983 118.264 70.7983 126.117C70.7983 133.969 77.1642 140.335 85.017 140.335Z" fill="#1A1A1A"/>
<path d="M85.0167 136.011C90.4809 136.011 94.9105 131.581 94.9105 126.117C94.9105 120.653 90.4809 116.223 85.0167 116.223C79.5524 116.223 75.1228 120.653 75.1228 126.117C75.1228 131.581 79.5524 136.011 85.0167 136.011Z" fill="#8C8C8C"/>
<path d="M85.0168 132.733C88.6708 132.733 91.6329 129.771 91.6329 126.117C91.6329 122.463 88.6708 119.501 85.0168 119.501C81.3628 119.501 78.4006 122.463 78.4006 126.117C78.4006 129.771 81.3628 132.733 85.0168 132.733Z" fill="#D8D9DD"/>
<path d="M194.502 140.335C202.355 140.335 208.721 133.969 208.721 126.117C208.721 118.264 202.355 111.898 194.502 111.898C186.649 111.898 180.283 118.264 180.283 126.117C180.283 133.969 186.649 140.335 194.502 140.335Z" fill="#1A1A1A"/>
<path d="M194.502 136.011C199.967 136.011 204.396 131.581 204.396 126.117C204.396 120.653 199.967 116.223 194.502 116.223C189.038 116.223 184.609 120.653 184.609 126.117C184.609 131.581 189.038 136.011 194.502 136.011Z" fill="#8C8C8C"/>
<path d="M187.886 126.117C187.886 129.774 190.845 132.733 194.502 132.733C198.159 132.733 201.119 129.774 201.119 126.117C201.119 122.46 198.159 119.501 194.502 119.501C190.845 119.486 187.886 122.46 187.886 126.117Z" fill="#D8D9DD"/>
<path d="M227.143 112.566C225.944 104.645 222.059 102.975 210.557 100.669C197.871 98.1348 181.771 89.8646 181.771 89.8646C181.771 89.8646 154.305 76.4047 147.582 74.8569C140.86 73.309 124.304 73.7491 110.404 73.8705C96.5045 73.9767 88.3406 77.8463 81.2844 83.3547C74.2282 88.863 61.9822 93.0664 61.9822 93.0664L59.7516 93.461C57.4602 93.8707 55.8062 95.8586 55.8062 98.1803V117.847C55.8062 120.077 57.3084 122.02 59.4632 122.596L67.5058 124.721C68.1583 124.827 68.7653 124.372 68.8412 123.704C69.7213 115.661 76.6713 109.546 84.9718 109.546C93.7883 109.561 101.027 116.8 101.027 125.631C101.027 126.633 100.936 127.619 100.753 128.56C100.571 129.546 101.33 130.442 102.332 130.442H176.308C177.75 130.442 178.857 129.182 178.675 127.756C178.584 127.073 178.539 126.375 178.539 125.662C178.508 116.951 185.564 109.728 194.275 109.546C203.304 109.364 210.678 116.617 210.678 125.616C210.678 126.208 210.648 126.8 210.587 127.376C210.405 129.015 211.68 130.442 213.319 130.442H223.956C225.883 130.442 227.462 128.879 227.462 126.936V116.633C227.431 115.297 227.355 113.916 227.143 112.566Z" fill="#F7CC7F"/>
<path d="M56.2763 100.517H65.032C65.7756 100.517 66.2915 101.276 66.0032 101.974L65.0169 104.326C64.076 106.572 61.8909 108.029 59.463 108.029H56.2763C55.6541 108.029 55.1382 107.528 55.1382 106.891V101.655C55.1382 101.018 55.6541 100.517 56.2763 100.517Z" fill="#CF283C"/>
<path d="M213.212 104.159C218.037 104.903 223.591 109.47 223.591 109.47C224.927 110.897 223.819 113.218 221.877 113.097L212.468 112.505C210.511 112.384 208.842 111.048 208.311 109.167C207.385 105.995 208.159 103.385 213.212 104.159Z" fill="#EAFCFC"/>
<path d="M55.8514 118.59C55.2445 118.575 54.8196 119.182 55.0472 119.743C55.6693 121.337 57.0199 122.581 58.7498 123.036L67.7635 125.419C68.4919 125.54 69.1748 125.024 69.2658 124.281C69.4327 122.748 69.7969 121.291 70.3281 119.91C70.5101 119.44 70.1611 118.939 69.6755 118.924L55.8514 118.59Z" fill="#EAB054"/>
<path d="M210.739 122.293C210.056 122.278 209.525 122.869 209.616 123.552C209.707 124.311 209.768 125.07 209.768 125.859C209.768 126.527 209.738 127.164 209.662 127.816C209.464 129.637 210.876 131.231 212.697 131.231H224.502C226.642 131.231 228.387 129.486 228.387 127.346V124.296C228.387 123.431 227.689 122.718 226.824 122.703L210.739 122.293Z" fill="#EAB054"/>
<path opacity="0.5" d="M181.786 94.4322C181.634 94.3412 165.989 85.7675 155.624 80.9572C145.351 76.2075 133.894 76.7083 133.409 76.7234C132.089 76.6931 104.668 76.1013 96.2461 78.7265C87.7483 81.3669 76.7012 93.4307 76.2308 93.9467L76.1094 94.0832L79.0836 108.044L79.4023 108.029C88.0518 107.543 94.668 109.85 98.5527 114.69C101.481 118.347 101.846 122.217 101.846 122.263L101.876 122.596L133.06 123.401H133.424L133.803 123.416L177.263 124.266V123.886C177.476 109.759 181.952 95.024 181.983 94.8723L182.074 94.584L181.786 94.4322ZM102.528 121.853C102.377 120.806 101.724 117.498 99.1445 114.25C96.3675 110.76 90.7225 106.724 79.6754 107.27L76.9136 94.3108C78.1883 92.93 88.6588 81.8828 96.4737 79.4397C104.289 76.9966 129.706 77.4063 133.06 77.467V122.642L102.528 121.853ZM176.505 123.492L133.788 122.657V77.467C135.791 77.4063 146.064 77.3456 155.321 81.64C164.927 86.0862 179.069 93.7949 181.179 94.9482C180.541 97.0574 176.778 110.472 176.505 123.492Z" fill="#FEB546"/>
<path opacity="0.5" d="M55.0469 119.743C55.669 121.337 57.0196 122.581 58.7495 123.036L67.7632 125.419C68.4916 125.54 69.1745 125.024 69.2655 124.281C69.3262 123.689 69.4173 123.112 69.5387 122.551L55.0469 119.743Z" fill="#FEB546"/>
<path opacity="0.5" d="M209.738 126.709C209.722 127.088 209.692 127.452 209.647 127.832C209.449 129.653 210.861 131.246 212.682 131.246H224.487C226.627 131.246 228.372 129.501 228.372 127.361V126.724H209.738V126.709Z" fill="#FEB546"/>
<path d="M179.221 126.709C179.221 125.905 179.282 125.115 179.388 124.342C179.524 123.416 178.826 122.566 177.886 122.536L100.935 120.654C100.1 120.639 99.4935 121.428 99.7211 122.247C100.116 123.659 100.328 125.146 100.328 126.678C100.328 127.695 100.237 128.681 100.055 129.653C99.8728 130.654 100.632 131.595 101.648 131.595H176.945C178.417 131.595 179.54 130.29 179.342 128.818C179.267 128.12 179.221 127.407 179.221 126.709Z" fill="#EAB054"/>
<path opacity="0.5" d="M179.221 126.709C179.221 126.693 179.221 126.678 179.221 126.663H100.344C100.344 127.68 100.253 128.666 100.071 129.637C99.8884 130.639 100.647 131.58 101.664 131.58H176.96C178.432 131.58 179.555 130.275 179.358 128.803C179.267 128.12 179.221 127.407 179.221 126.709Z" fill="#FEB546"/>
<path d="M85.3206 95.7523L127.84 96.1468C127.84 96.1468 130.45 96.071 130.799 93.6278C131.148 91.1847 131.118 80.6839 131.118 80.6839C131.118 80.6839 130.814 78.5746 128.796 78.5443C127.567 78.5291 117.294 77.8007 107.309 79.0147C99.1599 80.001 91.6181 83.734 85.8973 89.4548L82.8775 92.4746C82.8775 92.4746 80.8441 95.7068 85.3206 95.7523Z" fill="#EAFCFC"/>
<path d="M135.852 82.0194V93.021C135.852 94.4475 136.945 95.6311 138.341 95.6766L171.755 97.0271C172.529 97.0575 173.273 96.7085 173.713 96.056C174.32 95.1758 174.38 93.7191 171.391 91.7615C166.186 88.3776 152.939 81.0331 148.037 80.335C144.911 79.8798 140.829 79.6825 138.28 79.6067C136.96 79.5611 135.852 80.6537 135.852 82.0194Z" fill="#EAFCFC"/>
<path d="M91.6182 90.6083C91.6182 90.6083 119.327 87.4519 119.919 87.9982C120.511 88.5445 124.365 97.5582 125.063 100.017L92.4225 99.713L90.1311 96.2532L91.6182 90.6083Z" fill="#B75742"/>
<path d="M150.374 93.0968C150.374 93.0968 152.924 96.1165 153.652 99.3639L152.848 100.669L151.239 98.9694L150.374 93.0968Z" fill="#263D60"/>
<path d="M153.091 85.1757C152.605 81.989 149.722 79.6976 146.717 81.2455C146.034 81.5945 145.124 82.2925 144.653 82.8995C143.394 84.5232 143.06 86.5262 141.755 88.1044C142.241 88.4686 142.817 88.8479 143.5 89.2121L144.32 88.1196L144.046 89.4701C146.065 90.4413 148.918 91.2304 152.833 91.2152C153.318 89.0149 153.349 86.8752 153.091 85.1757Z" fill="#1A1A1A"/>
<path d="M146.338 92.1863C146.338 92.1863 143.439 92.0042 142.301 93.2486C141.148 94.4929 144.851 104.372 145.048 105.95C145.26 107.543 143.333 110.699 143.333 110.699C143.333 110.699 151.3 114.432 153.257 113.143C153.257 113.143 152.939 100.411 152.741 99.2881C152.529 98.15 150.799 93.5369 150.374 93.0816C149.949 92.6416 146.338 92.1863 146.338 92.1863Z" fill="#355389"/>
<path d="M147.294 88.3168C147.294 88.3168 147.279 88.4078 147.248 88.5444C147.112 89.2424 146.626 91.549 146.292 92.1863C145.882 92.9602 147.688 95.4033 149.418 95.0998C149.934 95.0088 148.978 92.854 149.024 92.6264C149.115 92.1863 149.236 91.5945 149.357 90.9723C149.433 90.6233 149.494 90.2743 149.555 89.9405C149.737 88.9996 149.889 88.2409 149.889 88.2409L147.294 88.3168Z" fill="#F7A491"/>
<path d="M91.8306 91.1393C91.8002 90.942 91.7244 90.7751 91.6181 90.6082L87.5058 94.7356C87.5058 94.7356 84.4102 99.6371 91.2236 99.7129L93.0901 99.7281L91.8306 91.1393Z" fill="#B75742"/>
<path opacity="0.3" d="M147.248 88.5445C147.279 88.3927 147.294 88.3169 147.294 88.3169L149.889 88.2562C149.889 88.2562 149.737 89.0149 149.555 89.9557C149.494 90.2896 149.418 90.6234 149.358 90.9724C148.963 90.9117 148.538 90.7145 148.113 90.3503C147.658 89.9557 147.355 89.4701 147.173 88.9542C147.203 88.8024 147.233 88.6507 147.248 88.5445Z" fill="#F47458"/>
<path d="M149.039 82.4292C149.039 82.4292 147.825 82.2926 147.051 83.2789C146.292 84.2653 145.457 87.3306 147.369 88.9846C149.266 90.6538 151.148 88.7721 151.436 86.7691C151.709 84.7812 151.816 82.3685 149.039 82.4292Z" fill="#F7A491"/>
<path d="M151.983 86.7538C151.755 87.1939 151.376 87.4367 151.133 87.3001C150.89 87.1635 150.875 86.6931 151.103 86.2531C151.33 85.813 151.71 85.5702 151.953 85.7068C152.195 85.8433 152.211 86.3138 151.983 86.7538Z" fill="#F7A491"/>
<path d="M149.175 82.1104C149.175 82.1104 147.536 85.0239 146.383 85.1453C145.215 85.2819 145.063 86.8297 145.063 86.8297C145.063 86.8297 145.488 83.2636 146.641 82.5808C147.794 81.8979 149.175 82.1104 149.175 82.1104Z" fill="#1A1A1A"/>
<path d="M146.687 85.8888C146.778 86.4048 146.596 86.8752 146.262 86.9511C145.929 87.0118 145.579 86.6476 145.488 86.1316C145.397 85.6157 145.58 85.1453 145.913 85.0694C146.247 85.0087 146.596 85.3729 146.687 85.8888Z" fill="#F7A491"/>
<path d="M142.574 106.299C142.574 106.268 143.667 101.61 144.107 100.578C144.547 99.546 146.277 94.7508 146.277 94.7508L144.046 94.2652C144.046 94.2652 142.605 98.0133 141.952 99.7129C141.3 101.412 141.573 104.538 141.543 105.419C141.543 105.434 141.451 106.162 141.451 106.177C141.436 106.268 141.406 106.359 141.406 106.375C141.376 106.42 141.3 106.708 141.3 106.739C141.3 106.769 141.224 106.86 141.209 106.906C141.178 106.951 141.118 107.543 141.102 107.649C141.087 107.74 141.133 107.968 141.133 107.968L141.102 108.362C141.087 108.651 141.391 108.575 141.391 108.575C141.391 108.711 141.436 108.787 141.512 108.818C141.588 108.848 141.679 108.818 141.694 108.833C141.709 108.833 141.709 108.878 141.709 108.878C141.694 108.969 141.8 109.03 141.861 109.045C141.922 109.06 142.043 109.015 142.074 108.969C142.104 108.924 142.134 108.939 142.134 108.939C142.195 109 142.453 108.985 142.514 108.909C142.574 108.833 142.62 108.408 142.65 108.362C142.681 108.317 142.726 108.256 142.741 108.196C142.757 108.135 142.954 107.695 142.969 107.619C142.984 107.543 142.848 107.24 142.832 107.057C142.802 106.875 142.635 106.617 142.59 106.526C142.559 106.511 142.574 106.42 142.574 106.299Z" fill="#F48C7F"/>
<path d="M149.95 87.7402L148.068 87.6492C148.068 87.6492 148.068 88.3624 148.902 88.4231C149.904 88.5141 149.95 87.7402 149.95 87.7402Z" fill="white"/>
<path d="M139.692 89.182L139.009 93.6737C139.009 93.6737 141.482 99.0151 142.969 98.5599C144.214 98.1654 143.44 93.446 143.44 93.446C143.44 93.446 142.757 90.9119 142.969 89.6372C143.167 88.3474 139.692 89.182 139.692 89.182Z" fill="#F7A491"/>
<path d="M142.969 89.622C143.167 88.3474 139.692 89.182 139.692 89.182L139.631 89.5613C139.737 89.8041 139.858 90.0166 140.01 90.1835C140.784 91.0181 141.998 91.534 143.06 91.5644C142.954 90.8664 142.893 90.138 142.969 89.622Z" fill="#F47458"/>
<path d="M139.115 82.8238C139.024 82.7935 138.326 87.9377 139.631 89.3489C140.936 90.7601 143.5 91.2306 144.411 90.1076C145.428 88.8785 145.367 83.3398 143.333 81.883C141.3 80.4414 139.115 82.8238 139.115 82.8238Z" fill="#F7A491"/>
<path d="M142.575 79.1514C140.997 79.4701 139.98 80.4412 139.601 80.851C138.887 80.942 137.916 81.3366 136.915 83.0058C135.685 85.0543 136.596 87.3305 138.022 88.4535C139.464 89.5612 139.434 90.851 139.434 90.851L139.661 90.1834C139.828 89.6826 139.904 89.1363 139.843 88.6204C139.813 88.3017 139.737 87.9527 139.616 87.6795C139.267 86.936 140.359 86.4352 140.663 85.8131C140.89 85.3427 140.906 84.2501 141.285 83.461L141.725 82.854C141.725 82.854 142.742 82.0649 143.743 82.2774C144.73 82.4898 144.593 78.7265 142.575 79.1514Z" fill="#13375B"/>
<path d="M140.587 86.7238C140.602 87.3459 140.314 87.8619 139.95 87.8771C139.586 87.8771 139.282 87.3763 139.282 86.7541C139.282 86.132 139.555 85.616 139.92 85.6009C140.284 85.5857 140.587 86.0865 140.587 86.7238Z" fill="#F7A491"/>
<path d="M142.727 88.1653L144.7 88.0591C144.7 88.0591 144.7 88.8178 143.819 88.8785C142.772 88.9696 142.727 88.1653 142.727 88.1653Z" fill="white"/>
<path d="M138.447 93.4915C138.63 93.1577 138.963 92.93 139.343 92.8845C140.997 92.7328 145.564 92.7328 147.901 96.7692C148.265 97.4066 148.539 98.0894 148.721 98.8026L149.206 100.821L137.188 100.426L137.203 99.0909C137.112 97.1486 137.522 95.2062 138.447 93.4915Z" fill="#3C8F7C"/>
<path d="M166.975 101.564L168.721 94.4776C168.842 94.0072 168.554 93.5216 168.068 93.4002C167.598 93.2788 167.112 93.5671 166.991 94.0527L165.17 101.473L166.975 101.564Z" fill="#1A1A1A"/>
<path d="M162.468 101.352C162.969 101.048 163.364 100.79 163.637 100.623C163.652 100.608 164.911 100.001 164.942 100.001C165.124 99.9405 165.276 99.8798 165.306 99.8798C165.397 99.8798 165.943 99.6977 165.989 99.6674C166.034 99.6522 166.262 99.6522 166.353 99.6522C166.444 99.6522 167.461 99.1362 167.628 99.0452C167.795 98.9693 168.098 98.6658 168.098 98.6658L168.751 98.2865C169.236 98.0133 168.796 97.6036 168.796 97.6036C169.024 97.467 169.084 97.3153 169.054 97.1635C169.009 97.0118 168.887 96.8904 168.872 96.86C168.872 96.8297 168.933 96.7842 168.933 96.7842C169.084 96.7083 169.084 96.4807 169.039 96.3593C168.993 96.2379 168.811 96.1013 168.705 96.1013C168.614 96.0861 168.599 96.0406 168.599 96.0406C168.614 95.8737 168.356 95.4943 168.174 95.4792C167.992 95.464 167.263 95.8282 167.172 95.8282C167.081 95.8282 166.93 95.7978 166.823 95.8585C166.717 95.904 165.822 96.0254 165.67 96.1013C165.518 96.1772 165.185 96.678 164.942 96.8904C164.699 97.118 164.441 97.6643 164.365 97.8161C164.335 97.8768 164.168 97.9678 163.986 98.0588C163.955 98.0892 158.477 100.062 155.245 101.033L162.468 101.352Z" fill="#F7A491"/>
<path d="M145.397 100.669C145.063 98.6356 144.638 96.496 144.183 95.4944C143.197 93.3245 139.873 92.0346 138.25 93.3852C137.385 94.0984 137.749 97.5278 138.492 100.487L145.397 100.669Z" fill="#50BFA5"/>
<path d="M97.1262 88.8783C97.1262 88.8783 93.0594 88.7721 91.6785 89.6977C90.2977 90.6082 90.4646 99.713 90.4646 99.713L91.8 99.9709C91.8 99.9709 92.2855 106.238 93.3326 106.557C94.3796 106.891 101.208 104.781 102.635 103.021C104.061 101.261 99.6301 88.2713 99.6301 88.2713L97.1262 88.8783Z" fill="#3C8F7C"/>
<path d="M104.365 81.6553C104.714 80.5627 104.956 77.2395 105.032 76.1014C104.972 76.0255 104.683 75.5399 104.714 74.5839C104.729 73.9162 104.274 72.8085 104.698 72.8843C105.123 72.9602 105.154 74.1135 105.412 73.9162C105.67 73.7189 105.791 71.291 106.17 71.3517C106.565 71.4124 106.292 73.7038 106.519 73.5217C106.747 73.3396 106.762 71.2303 107.308 71.3365C107.855 71.4276 107.066 73.81 107.354 73.8707C107.642 73.9162 108.113 72.4139 108.553 72.4898C108.993 72.5657 107.824 74.5232 107.961 74.4321C108.098 74.3259 109.038 73.5217 109.19 73.7038C109.372 73.901 107.187 76.2076 107.187 76.7994C107.369 78.332 107.733 81.0938 107.233 82.8389C106.626 84.9633 105.078 89.6978 105.078 89.6978L101.785 88.9088C101.785 88.9391 103.94 82.9603 104.365 81.6553Z" fill="#F7A491"/>
<path d="M105.761 74.3865C105.928 74.4623 106.065 74.5686 106.171 74.7051C106.186 74.7355 106.596 75.1149 106.49 75.7522C106.429 75.3577 106.338 74.9176 105.761 74.3865Z" fill="#F48C7F"/>
<path d="M84.683 90.6537C84.683 90.6537 84.774 90.1226 84.3188 89.3032C84.0305 88.7721 83.9546 87.7098 83.6511 87.9374C83.3476 88.1651 83.8029 89.1059 83.5297 89.0452C83.2566 88.9845 82.1943 87.0877 81.9364 87.3001C81.6632 87.5125 82.7861 89.2273 82.5282 89.1818C82.2854 89.1362 81.4356 87.4518 81.0562 87.7402C80.6769 88.0285 82.2247 89.6218 82.0274 89.7887C81.8302 89.9405 80.8742 88.9238 80.5707 89.1514C80.2672 89.3942 81.9364 90.502 81.7846 90.4716C81.6329 90.4413 80.601 90.1681 80.5555 90.3806C80.4948 90.6082 82.6647 91.291 82.9075 91.7766C83.1503 92.2622 86.8681 97.0422 87.9304 97.0574C88.9926 97.0574 93.7574 93.8404 94.1064 92.7782C94.4554 91.7311 94.0154 90.6233 93.3325 90.4716C92.6345 90.3199 88.1883 93.5217 87.9759 93.4762C87.7634 93.4307 84.683 90.6537 84.683 90.6537Z" fill="#F7A491"/>
<path d="M83.5754 89.5004C83.4692 89.637 83.4085 89.8039 83.363 89.9709C83.363 90.0012 83.1961 90.5475 83.6058 91.0331C83.4844 90.6689 83.3326 90.2592 83.5754 89.5004Z" fill="#F48C7F"/>
<path d="M94.714 97.2698C94.714 97.2698 98.9933 100.669 99.4637 101.367C99.8127 101.883 98.6443 107.74 98.6443 107.74C98.6443 107.74 96.9447 107.786 96.1708 107.194C96.1708 107.194 96.6412 103.142 96.4288 102.991C96.2315 102.839 91.5273 100.745 91.5273 100.745L91.8308 98.3472L94.714 97.2698Z" fill="#B75742"/>
<path d="M102.939 85.0239C102.939 85.0239 103.682 85.1605 106.216 87.9223L103.272 93.9163L100.556 88.939L102.939 85.0239Z" fill="#9BC1F9"/>
<path d="M98.1583 89.2425C98.1583 89.2425 100.086 88.8176 100.768 88.4837C101.451 88.1499 107.718 102.93 106.14 103.446C102.832 104.538 94.2585 107.422 94.2585 107.422C94.2585 107.422 94.0157 106.572 94.3192 105.009C94.8655 102.308 94.6834 96.2835 94.562 95.2364C94.5013 94.6143 90.8442 96.4049 90.8442 96.4049L89.4026 91.7311C89.4026 91.7311 93.5756 90.3047 94.9717 89.8646C95.3814 89.728 98.1583 89.2425 98.1583 89.2425Z" fill="#9BC1F9"/>
<path d="M105.306 98.3927C104.517 95.9496 99.3424 88.9541 99.2969 88.8782L100.147 88.3016C100.329 88.5747 104.562 94.5232 105.382 97.1029L105.306 98.3927Z" fill="#3C8F7C"/>
<path d="M94.0614 102.915L93.5303 102.232C93.5606 102.202 97.1722 99.3184 97.2784 96.1165C97.3695 92.8843 94.7746 89.7735 94.7442 89.7432L95.4119 89.1817C95.5333 89.3183 98.2648 92.5656 98.1585 96.1469C98.0371 99.7432 94.2283 102.793 94.0614 102.915Z" fill="#3C8F7C"/>
<path d="M97.2326 79.3638C97.2326 79.3638 98.7652 78.2257 100.207 80.077C101.36 81.5489 101.208 81.0785 101.785 81.822C102.362 82.5504 103.227 82.6111 103.348 83.8403C103.485 85.0542 102.938 85.3122 102.938 85.3122C102.938 85.3122 103.56 86.2075 103.09 87.2394C102.62 88.2713 101.299 89.2728 100.101 89.2576C100.101 89.2576 98.4314 90.4261 96.5953 90.1529C94.7591 89.8798 95.3813 89.8191 94.6529 89.895C93.9245 89.9708 91.8456 89.1818 92.0125 87.6946C92.0125 87.6946 90.662 86.3896 91.6938 85.0998C92.7409 83.8099 93.3024 82.8995 93.8031 81.2606C94.3039 79.6217 96.3828 79.0754 97.2326 79.3638Z" fill="#1A1A1A"/>
<path d="M99.2814 87.7706C99.2814 87.7706 99.4483 89.9254 99.6759 90.1075C99.9035 90.2896 100.222 90.5931 99.9794 91.1394C99.7366 91.6857 98.4164 91.5036 97.7791 91.2608C97.1721 91.0332 96.7472 90.5627 96.7472 90.5627L96.6865 87.1181L99.2814 87.7706Z" fill="#F7A491"/>
<path d="M98.5224 88.757C98.0976 88.6507 97.3388 88.4535 96.6863 87.6037L96.6711 87.1181L99.2812 87.7706C99.2812 87.7706 99.3267 88.3017 99.3874 88.848C99.0384 88.8784 98.7197 88.8025 98.5224 88.757Z" fill="#F48C7F"/>
<path d="M95.6089 85.2364C95.6089 85.2364 95.4117 83.9769 94.6529 84.3107C93.8942 84.6446 94.6984 86.4959 95.3358 86.3593C95.9883 86.2227 95.6089 85.2364 95.6089 85.2364Z" fill="#F7A491"/>
<path d="M97.9613 80.3349C97.9613 80.3349 99.1753 80.1832 99.9036 81.0633C100.632 81.9434 101.588 84.5838 100.769 86.5565C99.934 88.5292 98.5835 88.2106 98.022 88.0892C97.4605 87.9526 96.3528 87.6491 95.6244 85.9647C94.8808 84.2652 94.8505 80.3046 97.9613 80.3349Z" fill="#F7A491"/>
<path d="M122.786 100.487L125.032 111.17L121.163 110.79L119.311 101.018L122.786 100.487Z" fill="#F7A491"/>
<path d="M123.454 100.79L119.312 101.018C119.312 101.018 119.008 98.1499 118.932 96.7842C118.841 95.1301 118.872 92.9753 119.084 93.0057C119.661 93.1119 120.435 93.3699 120.905 93.9768C122.574 96.0558 123.454 100.79 123.454 100.79Z" fill="#5184CE"/>
<path d="M120.723 96.4201C120.83 96.9208 123.455 110.897 123.455 110.897C117.248 114.311 112.499 111.397 112.499 111.397C112.499 111.397 112.742 102.004 112.423 100.699C112.21 99.8344 111.452 94.159 111.998 93.9769C112.711 93.7341 113.789 93.37 114.684 93.2334C115.458 93.112 118.447 92.9147 118.993 93.0665C118.993 93.0513 120.314 94.3108 120.723 96.4201Z" fill="#EAFCFC"/>
<path d="M118.492 83.0968C118.492 83.0968 121.011 83.0513 120.799 85.1454C120.799 85.1454 122.666 85.8738 121.421 87.5581C121.421 87.5581 122.757 89.3639 120.435 91.109C120.435 91.109 119.813 93.5369 117.203 92.3837C117.203 92.3837 116.429 92.9603 115.351 92.1864C114.274 91.4125 114.137 90.9573 114.137 90.9573C114.137 90.9573 111.77 90.502 112.089 88.332C112.089 88.332 110.844 87.2698 112.726 85.9344C112.726 85.9344 112.696 82.945 115.23 83.3396C115.245 83.3244 116.732 81.0482 118.492 83.0968Z" fill="#13375B"/>
<path d="M114.562 87.9981C114.501 88.5293 114.152 88.9238 113.788 88.8783C113.424 88.8327 113.196 88.3623 113.257 87.8312C113.318 87.3001 113.667 86.9056 114.031 86.9511C114.395 86.9966 114.638 87.467 114.562 87.9981Z" fill="#F7A491"/>
<path d="M120.465 89.6067C120.237 90.0923 119.797 90.3654 119.463 90.2137C119.129 90.062 119.038 89.546 119.266 89.0604C119.494 88.5748 119.934 88.3017 120.268 88.4534C120.601 88.6052 120.677 89.1211 120.465 89.6067Z" fill="#F7A491"/>
<path d="M117.43 91.2304C117.43 91.2607 117.643 92.6416 117.749 93.3548C117.794 93.628 117.643 93.8859 117.385 93.977C116.702 94.235 115.366 94.5536 114.532 93.6735C114.456 93.5976 114.426 93.4762 114.426 93.37L114.775 90.1682L117.43 91.2304Z" fill="#F7A491"/>
<path d="M117.642 92.6112C116.914 92.9147 114.82 92.6568 114.653 91.3366L114.774 90.1833L117.43 91.2303C117.43 91.2455 117.582 92.1863 117.642 92.6112Z" fill="#F48C7F"/>
<path d="M118.113 84.7205C118.113 84.7205 117.005 84.4777 115.958 85.1302C114.896 85.7827 113.181 88.3624 114.623 90.6082C116.049 92.8541 118.492 91.7463 119.342 89.9709C120.192 88.1955 120.556 85.5551 118.113 84.7205Z" fill="#F7A491"/>
<path d="M117.43 90.2592L115.958 90.1682C115.958 90.1682 115.958 90.7296 116.611 90.7903C117.4 90.8662 117.43 90.2592 117.43 90.2592Z" fill="white"/>
<path d="M119.995 85.9647C119.995 85.9647 118.917 85.388 118.128 85.4639C117.324 85.5398 114.729 87.4366 114.35 87.1179C113.97 86.7993 114.456 85.1301 114.76 84.8873C115.063 84.6445 116.262 83.9161 116.368 83.9009C116.474 83.8857 117.567 83.9009 117.749 83.9616C117.931 84.0071 119.297 84.6597 119.297 84.6597L119.995 85.9647Z" fill="#13375B"/>
<path d="M104.426 112.156C104.441 112.095 104.501 112.095 104.562 112.08C105.108 112.05 105.655 112.004 106.201 111.913C106.292 111.898 106.383 111.868 106.459 111.837C106.611 111.777 106.762 111.762 106.914 111.807C107.005 111.822 107.081 111.822 107.172 111.822C107.445 111.807 108.234 111.519 108.629 111.443C108.72 111.428 108.796 111.352 108.811 111.261C109.16 109.667 109.904 106.117 109.979 104.948C110.071 103.461 110.89 96.7235 110.89 96.7235L113.652 97.4064C113.652 97.4064 112.681 102.384 112.438 104.796C112.256 106.648 110.526 110.639 109.979 111.792C109.722 112.642 109.084 112.687 108.948 112.702C108.857 112.718 108.781 112.763 108.735 112.824C108.644 112.945 108.523 113.051 108.401 113.142C108.31 113.203 108.234 113.294 108.174 113.385C108.067 113.552 107.961 113.734 107.87 113.916C107.81 114.038 107.734 114.083 107.627 114.053C107.521 114.023 107.461 113.947 107.461 113.81C107.461 113.613 107.521 113.431 107.612 113.264C107.703 113.097 107.688 113.006 107.582 112.869C107.521 112.793 107.445 112.718 107.369 112.642C107.278 112.581 107.203 112.535 107.081 112.551C106.884 112.611 106.687 112.657 106.489 112.687L106.322 112.733L106.231 112.748C106.216 112.748 105.928 112.793 105.822 112.793C105.746 112.793 105.609 112.809 105.503 112.809C105.397 112.824 105.184 112.778 105.184 112.778C105.093 112.778 105.002 112.748 104.926 112.687C104.896 112.657 104.866 112.627 104.881 112.581C104.896 112.535 104.926 112.52 104.972 112.505C105.033 112.49 105.382 112.444 105.366 112.429C105.26 112.429 104.942 112.429 104.85 112.429C104.714 112.429 104.593 112.384 104.501 112.293C104.456 112.262 104.41 112.217 104.426 112.156Z" fill="#F7A491"/>
<path d="M109.039 100.775L113.045 102.718C113.045 102.718 113.667 99.7737 114.137 97.9527C114.547 96.3897 112.544 93.5976 111.876 93.9769C110.404 94.8267 109.039 100.775 109.039 100.775Z" fill="#5184CE"/>
<path d="M136.141 95.5854L171.801 97.1029C171.801 97.1029 168.69 107.513 168.615 108.029C168.539 108.545 156.839 114.933 153.895 114.857C150.951 114.781 144.092 112.323 142.62 111.883C141.148 111.443 137.309 108.453 137.537 106.617C137.78 104.781 136.141 95.5854 136.141 95.5854Z" fill="#F7CC7F"/>
<path d="M146.398 100.866H136.823C136.58 100.866 136.398 100.669 136.398 100.441V99.6219C136.398 99.3791 136.595 99.197 136.823 99.197H146.398C146.641 99.197 146.823 99.3943 146.823 99.6219V100.441C146.838 100.669 146.641 100.866 146.398 100.866Z" fill="#EAB054"/>
<path d="M150.541 81.0027L155.367 82.9906L155.093 81.989L153.288 81.0027C153.288 81.0027 151.816 80.7144 151.664 80.6385C151.543 80.5626 150.541 81.0027 150.541 81.0027Z" fill="#F7CC7F"/>
<path opacity="0.6" d="M173.576 93.719L135.852 90.4868V93.0058C135.852 94.4322 136.945 95.6158 138.341 95.6613L171.755 97.0118C172.529 97.0422 173.273 96.6932 173.713 96.0407C174.092 95.4944 174.259 94.7205 173.576 93.719Z" fill="#C5DDF9"/>
<path opacity="0.7" d="M135.852 90.4868V90.1378L173.44 93.5369L173.576 93.719L135.852 90.4868Z" fill="#C5DDF9"/>
<path opacity="0.2" d="M144.547 95.9194L147.977 96.0711L150.799 91.7767L147.461 91.4884L144.547 95.9194Z" fill="white"/>
<path opacity="0.2" d="M150.647 96.1773L153.394 91.9891L152.119 91.8829L149.342 96.1166L150.647 96.1773Z" fill="white"/>
<path d="M84.7591 95.7221L127.84 96.147L128.219 109.804C128.219 109.804 123.181 117.118 122.574 117.042C121.967 116.967 109.099 114.903 107.946 114.979C106.793 115.055 96.7015 110.108 96.2311 110.199C95.7607 110.305 92.6044 108.605 92.6044 108.605L87.4753 104.994L82.3918 99.7586L84.7591 95.7221Z" fill="#F7CC7F"/>
<path d="M93.4842 100.016H83.909C83.6662 100.016 83.4841 99.8192 83.4841 99.5915V98.7721C83.4841 98.5293 83.6814 98.3472 83.909 98.3472H93.4842C93.727 98.3472 93.9091 98.5445 93.9091 98.7721V99.5915C93.9091 99.8343 93.7118 100.016 93.4842 100.016Z" fill="#EAB054"/>
<path d="M99.8575 85.813L98.3704 86.1013C98.3704 86.1013 98.5069 86.6628 99.1746 86.5565C99.9637 86.42 99.8575 85.813 99.8575 85.813Z" fill="white"/>
<path d="M95.2293 84.3865C95.2293 84.3865 98.5981 82.8387 98.9319 80.426C99.2658 78.0132 96.1701 80.3197 96.1701 80.3197L94.9106 81.5185L95.2293 84.3865Z" fill="#1A1A1A"/>
<path d="M137.081 95.282C137.081 95.282 137.703 95.7069 138.492 95.6918C138.492 95.6918 137.445 96.0104 137.415 95.9952C137.385 95.9649 136.854 95.54 136.869 95.54C136.869 95.5097 137.081 95.282 137.081 95.282Z" fill="#F7CC7F"/>
<path d="M140.328 79.6825L144.547 79.9556C144.547 79.9556 143.864 78.8175 143.56 78.8175C143.257 78.8175 141.345 78.8175 141.345 78.8175L140.328 79.6825Z" fill="#F7CC7F"/>
<path d="M287.014 142.114H12.5452C11.9674 142.114 11.4998 141.647 11.4998 141.069C11.4998 140.491 11.9674 140.024 12.5452 140.024H287.014C287.591 140.024 288.059 140.491 288.059 141.069C288.05 141.647 287.591 142.114 287.014 142.114Z" fill="#183658"/>
</g>
<defs>
<clipPath id="clip0_1187_4689">
<rect width="297" height="141.508" fill="white" transform="translate(0 0.606812)"/>
</clipPath>
</defs>
</svg>
